<svg width="564" height="546" xmlns="http://www.w3.org/2000/svg"><defs><linearGradient x1="50.001%" y1="186.76%" x2="50.001%" y2="-214.829%" id="a"><stop stop-color="#8263C9" offset="0%"/><stop stop-color="#FFF" offset="100%"/></linearGradient><linearGradient x1="49.976%" y1="77.709%" x2="49.976%" y2="13.601%" id="b"><stop stop-color="#FFF" stop-opacity="0" offset="0%"/><stop stop-color="#12103D" offset="100%"/></linearGradient><linearGradient x1="50.073%" y1="82.041%" x2="50.073%" y2="11.485%" id="c"><stop stop-color="#FFF" stop-opacity="0" offset="0%"/><stop stop-color="#12103D" offset="100%"/></linearGradient><linearGradient x1="62.139%" y1="39.613%" x2="-19.615%" y2="122.258%" id="d"><stop stop-color="#FFF" stop-opacity="0" offset="0%"/><stop stop-color="#12103D" offset="100%"/></linearGradient><linearGradient x1="60.756%" y1="38.02%" x2="103.795%" y2="-14.973%" id="e"><stop stop-color="#FFF" stop-opacity="0" offset="0%"/><stop stop-color="#FFF" offset="100%"/></linearGradient><linearGradient x1="69.565%" y1="94.345%" x2="1.078%" y2="-24.458%" id="f"><stop stop-color="#FFF" stop-opacity="0" offset="0%"/><stop stop-color="#8A5D3B" offset="100%"/></linearGradient><linearGradient x1="89.789%" y1="12.331%" x2="14.67%" y2="99.601%" id="g"><stop stop-color="#FFF" stop-opacity="0" offset="0%"/><stop stop-color="#231F20" offset="100%"/></linearGradient><linearGradient x1="36.071%" y1="54.335%" x2="165.698%" y2="-13.302%" id="h"><stop stop-color="#FFF" stop-opacity="0" offset="0%"/><stop stop-color="#FFF" offset="100%"/></linearGradient><linearGradient x1="88.763%" y1="49.906%" x2="-94.458%" y2="49.906%" id="i"><stop stop-color="#FFF" stop-opacity="0" offset="0%"/><stop stop-color="#12103D" offset="100%"/></linearGradient><linearGradient x1="68.273%" y1="62.16%" x2="-69.897%" y2="-29.896%" id="j"><stop stop-color="#FFF" stop-opacity="0" offset="0%"/><stop stop-color="#C4C6C8" stop-opacity=".25" offset="25%"/><stop stop-color="#231F20" offset="100%"/></linearGradient><linearGradient x1="44.689%" y1="49.989%" x2="-49.178%" y2="49.989%" id="k"><stop stop-color="#FFF" stop-opacity="0" offset="0%"/><stop stop-color="#231F20" offset="100%"/></linearGradient><linearGradient x1="60.142%" y1="49.969%" x2="-83.884%" y2="49.969%" id="l"><stop stop-color="#FFF" stop-opacity="0" offset="0%"/><stop stop-color="#231F20" offset="100%"/></linearGradient><linearGradient x1="38.522%" y1="49.969%" x2="-105.425%" y2="49.969%" id="m"><stop stop-color="#FFF" stop-opacity="0" offset="0%"/><stop stop-color="#231F20" offset="100%"/></linearGradient><linearGradient x1="184.409%" y1="57.675%" x2="-149.764%" y2="38.241%" id="n"><stop stop-color="#FFF" stop-opacity="0" offset="0%"/><stop stop-color="#231F20" offset="100%"/></linearGradient><linearGradient x1="-74.488%" y1="66.353%" x2="161.26%" y2="32.897%" id="o"><stop stop-color="#FFF" stop-opacity="0" offset="0%"/><stop stop-color="#FFF" offset="100%"/></linearGradient><linearGradient x1="62.652%" y1="54.836%" x2="13.18%" y2="32.222%" id="p"><stop stop-color="#FFF" stop-opacity="0" offset="0%"/><stop stop-color="#8A5D3B" offset="100%"/></linearGradient><linearGradient x1="-3.293%" y1="49.965%" x2="118.825%" y2="49.965%" id="q"><stop stop-color="#FFF" stop-opacity="0" offset="0%"/><stop stop-color="#12103D" offset="100%"/></linearGradient><linearGradient x1="53.534%" y1="50.022%" x2="-67.147%" y2="50.022%" id="r"><stop stop-color="#FFF" stop-opacity="0" offset="0%"/><stop stop-color="#231F20" offset="100%"/></linearGradient><linearGradient x1="-205.677%" y1="87.32%" x2="224.891%" y2="20.837%" id="s"><stop stop-color="#FFF" stop-opacity="0" offset="0%"/><stop stop-color="#FFF" offset="100%"/></linearGradient><linearGradient x1="166.124%" y1="55.012%" x2="-902.28%" y2="-6.978%" id="t"><stop stop-color="#FFF" stop-opacity="0" offset="0%"/><stop stop-color="#231F20" offset="100%"/></linearGradient><linearGradient x1="53.409%" y1="50.019%" x2="-43.93%" y2="50.019%" id="u"><stop stop-color="#FFF" stop-opacity="0" offset="0%"/><stop stop-color="#231F20" offset="100%"/></linearGradient><linearGradient x1="58.31%" y1="59.645%" x2="-74.045%" y2="-93.701%" id="v"><stop stop-color="#FFF" stop-opacity="0" offset="0%"/><stop stop-color="#262261" offset="100%"/></linearGradient><linearGradient x1="88.025%" y1="49.963%" x2="-85.195%" y2="49.963%" id="w"><stop stop-color="#FFF" stop-opacity="0" offset="0%"/><stop stop-color="#262261" offset="100%"/></linearGradient><linearGradient x1="50.035%" y1="51.824%" x2="50.035%" y2="196.234%" id="x"><stop stop-color="#FFF" stop-opacity="0" offset="0%"/><stop stop-color="#262261" offset="100%"/></linearGradient><linearGradient x1="50.069%" y1="22.685%" x2="50.069%" y2="-2.785%" id="y"><stop stop-color="#FFF" stop-opacity="0" offset="0%"/><stop stop-color="#8A5D3B" offset="100%"/></linearGradient><linearGradient x1="47.326%" y1="59.626%" x2="72.586%" y2="-4.38%" id="z"><stop stop-color="#FFF" stop-opacity="0" offset="0%"/><stop stop-color="#12103D" offset="100%"/></linearGradient><linearGradient x1="63.906%" y1="50.051%" x2="-66.199%" y2="50.051%" id="A"><stop stop-color="#FFF" stop-opacity="0" offset="0%"/><stop stop-color="#12103D" offset="100%"/></linearGradient><linearGradient x1="50.038%" y1="68.592%" x2="50.038%" y2="-2.25%" id="B"><stop stop-color="#FFF" stop-opacity="0" offset="0%"/><stop stop-color="#12103D" offset="100%"/></linearGradient><linearGradient x1="61.577%" y1="49.995%" x2="-72%" y2="49.995%" id="C"><stop stop-color="#FFF" stop-opacity="0" offset="0%"/><stop stop-color="#12103D" offset="100%"/></linearGradient><linearGradient x1="43.546%" y1="59.178%" x2="84.832%" y2=".458%" id="D"><stop stop-color="#FFF" stop-opacity="0" offset="0%"/><stop stop-color="#FFF" offset="100%"/></linearGradient><linearGradient x1="34.914%" y1="44.381%" x2="-32.214%" y2="19.383%" id="E"><stop stop-color="#FFF" stop-opacity="0" offset="0%"/><stop stop-color="#231F20" offset="100%"/></linearGradient><linearGradient x1="43.008%" y1="50.006%" x2="-9.568%" y2="50.006%" id="F"><stop stop-color="#FFF" stop-opacity="0" offset="0%"/><stop stop-color="#231F20" offset="100%"/></linearGradient><linearGradient x1="59.123%" y1="50.006%" x2="114.115%" y2="50.006%" id="G"><stop stop-color="#FFF" stop-opacity="0" offset="0%"/><stop stop-color="#231F20" offset="100%"/></linearGradient><linearGradient x1="67.185%" y1="66.913%" x2="-72.448%" y2="-70.446%" id="H"><stop stop-color="#FFF" stop-opacity="0" offset="0%"/><stop stop-color="#231F20" offset="100%"/></linearGradient><linearGradient x1="57.707%" y1="46.491%" x2="-15.21%" y2="59.858%" id="I"><stop stop-color="#FFF" stop-opacity="0" offset="0%"/><stop stop-color="#BE1E2D" offset="100%"/></linearGradient><linearGradient x1="41.879%" y1="35.705%" x2="20.155%" y2="-.755%" id="J"><stop stop-color="#FFF" stop-opacity="0" offset="0%"/><stop stop-color="#BE1E2D" offset="100%"/></linearGradient><linearGradient x1="41.917%" y1="50.504%" x2="-26.786%" y2="82.936%" id="K"><stop stop-color="#FFF" stop-opacity="0" offset="0%"/><stop stop-color="#231F20" offset="100%"/></linearGradient><linearGradient x1="91.1%" y1="55.085%" x2="-301.425%" y2="-3.685%" id="L"><stop stop-color="#FFF" stop-opacity="0" offset="0%"/><stop stop-color="#8A5D3B" offset="100%"/></linearGradient><linearGradient x1="9.707%" y1="76.165%" x2="158.927%" y2="-38.884%" id="M"><stop stop-color="#FFF" stop-opacity="0" offset="0%"/><stop stop-color="#FFF" offset="100%"/></linearGradient><linearGradient x1="53.464%" y1="49.995%" x2="-66.928%" y2="49.995%" id="N"><stop stop-color="#FFF" stop-opacity="0" offset="0%"/><stop stop-color="#231F20" offset="100%"/></linearGradient><linearGradient x1="-205.677%" y1="87.341%" x2="224.454%" y2="20.842%" id="O"><stop stop-color="#FFF" stop-opacity="0" offset="0%"/><stop stop-color="#FFF" offset="100%"/></linearGradient><linearGradient x1="53.424%" y1="50.028%" x2="-43.942%" y2="50.028%" id="P"><stop stop-color="#FFF" stop-opacity="0" offset="0%"/><stop stop-color="#231F20" offset="100%"/></linearGradient><linearGradient x1="58.325%" y1="59.558%" x2="-74.03%" y2="-93.828%" id="Q"><stop stop-color="#FFF" stop-opacity="0" offset="0%"/><stop stop-color="#262261" offset="100%"/></linearGradient><linearGradient x1="50.035%" y1="51.845%" x2="50.035%" y2="196.415%" id="R"><stop stop-color="#FFF" stop-opacity="0" offset="0%"/><stop stop-color="#262261" offset="100%"/></linearGradient><linearGradient x1="115.143%" y1="72.289%" x2="-2.124%" y2="32.023%" id="S"><stop stop-color="#FFF" stop-opacity="0" offset="0%"/><stop stop-color="#FFF" offset="100%"/></linearGradient><linearGradient x1="47.99%" y1="68.142%" x2="41.513%" y2="147.487%" id="T"><stop stop-color="#FFF" stop-opacity="0" offset="0%"/><stop stop-color="#12103D" offset="100%"/></linearGradient><linearGradient x1="64.625%" y1="49.999%" x2="-64.585%" y2="49.999%" id="U"><stop stop-color="#FFF" stop-opacity="0" offset="0%"/><stop stop-color="#12103D" offset="100%"/></linearGradient><linearGradient x1="14.263%" y1="27.086%" x2="-53.425%" y2="-13.27%" id="V"><stop stop-color="#FFF" stop-opacity="0" offset="0%"/><stop stop-color="#12103D" offset="100%"/></linearGradient><linearGradient x1="55.269%" y1="50.715%" x2="-104.693%" y2="70.74%" id="W"><stop stop-color="#FFF" stop-opacity="0" offset="0%"/><stop stop-color="#12103D" offset="100%"/></linearGradient><linearGradient x1="48.511%" y1="55.138%" x2="167.758%" y2="-10.536%" id="X"><stop stop-color="#FFF" stop-opacity="0" offset="0%"/><stop stop-color="#FFF" offset="100%"/></linearGradient><linearGradient x1="68.016%" y1="-2.63%" x2="12.237%" y2="149.191%" id="Y"><stop stop-color="#FFF" stop-opacity="0" offset="0%"/><stop stop-color="#231F20" offset="100%"/></linearGradient><linearGradient x1="74.555%" y1="49.128%" x2="-58.081%" y2="53.141%" id="Z"><stop stop-color="#FFF" stop-opacity="0" offset="0%"/><stop stop-color="#12103D" offset="100%"/></linearGradient></defs><g fill="none" fill-rule="evenodd"><path d="M1.619 477.114c42.67 22.197 85.362 44.393 128.072 66.589M1.786 416.258l147.094 76.564 97.896 50.952M1.595 458.898a72471.35 72471.35 0 00143.869 74.757l19.438 10.095M1.905 262.023c22.117 11.474 44.734 22.176 67.35 34.067 20.237 11.89 40.474 22.592 61.9 34.483a421.53 421.53 0 0040.473 19.025c84.516 42.807 164.271 86.803 248.788 129.61 41.663 22.592 82.135 43.995 123.941 64.519M1.869 304.746c19.772 11.558 40.008 22.26 61.435 32.961 135.702 67.778 264.263 137.933 397.691 206.234" opacity=".3" stroke="#FEFFE6" stroke-linecap="round" stroke-linejoin="round" stroke-width="3"/><g fill-rule="nonzero"><path d="M450.26 418.566c0 41.571-95.753 75.268-213.874 75.268-118.122 0-213.887-33.697-213.887-75.268s95.753-75.209 213.887-75.209c118.133 0 213.875 33.638 213.875 75.209z" fill="url(#a)" style="mix-blend-mode:multiply" transform="translate(75)"/><path d="M329.84 361.258c2.022-2.378 2.32-9.432 1.344-12.43a5.056 5.056 0 00-4.046-3.806c-5.699-.868-11.303.762-16.204 8.327-4.902 7.564-12.41 14.725-10.173 20.446 2.237 5.721 11.243 5.436 16.657-1.88 6.663-8.991 9.494-7.148 12.421-10.657z" fill="#12103D"/><path d="M334.075 352.706s-12.517 4.758-23.974 0v-33.304h24.355l-.381 33.304z" fill="#293271"/><path d="M103.214 309.697s-12.517 4.757-23.975 0v-33.305h24.355l-.38 33.305z" fill="url(#b)" style="mix-blend-mode:multiply" transform="translate(230.861 43.01)"/><path d="M353.54 361.258c-2.023-2.378-2.32-9.432-1.345-12.43a5.056 5.056 0 014.045-3.806c5.7-.868 11.303.762 16.205 8.327 4.902 7.564 12.41 14.725 10.173 20.446-2.237 5.721-11.244 5.436-16.657-1.88-6.603-8.991-9.495-7.148-12.421-10.657z" fill="#12103D"/><path d="M348.65 352.706s12.504 4.758 23.962 0v-33.304H348.28l.369 33.304z" fill="#293271"/><path d="M117.788 309.697s12.505 4.757 23.963 0v-33.305h-24.332l.37 33.305z" fill="url(#c)" style="mix-blend-mode:multiply" transform="translate(230.861 43.01)"/><path d="M433.85 120.145a108.64 108.64 0 00-9.388 14.761c1.69-4.638.143-17.151-3.129-6.85a65.867 65.867 0 00-3.081 19.185l-22.999 21.898a5.307 5.307 0 01-8.78-2.45l-4.07-14.988c-2.462 2.7-7.876 6.864-17.406 6.233l9.447 20.768a16.053 16.053 0 0026.009 4.663l25.723-26.454c25.985-22.54 13.052-43.748 7.674-36.766zm-194.244 0a108.64 108.64 0 019.388 14.761c-1.69-4.638-.143-17.151 3.129-6.85a65.867 65.867 0 013.081 19.185l23.249 22.124a5.105 5.105 0 008.459-2.38l4.152-15.307c2.463 2.7 7.877 6.863 17.407 6.232l-9.435 20.768a16.065 16.065 0 01-26.009 4.663l-25.723-26.454c-25.96-22.516-13.076-43.724-7.698-36.742z" fill="#FDD4C0"/><path d="M239.606 120.145a108.64 108.64 0 019.388 14.761c-1.69-4.638-.143-17.151 3.129-6.85a65.867 65.867 0 013.081 19.185l23.249 22.124a5.105 5.105 0 008.459-2.38l4.152-15.307c2.463 2.7 7.877 6.863 17.407 6.232l-9.435 20.768a16.065 16.065 0 01-26.009 4.663l-25.723-26.454c-25.96-22.516-13.076-43.724-7.698-36.742z" fill="#FDD4C0"/><path d="M305.27 157.97l-7.602 16.652a16.065 16.065 0 01-26.009 4.663l-25.723-26.466c-7.139-6.197-11.327-12.287-13.552-17.722 1.606 6.351 5.95 13.976 14.908 21.767l25.723 26.453a16.065 16.065 0 0026.009-4.663l9.435-20.767c-1.06.092-2.125.12-3.189.083z" fill="#FBC4AA"/><path d="M275.942 183.365L250.22 156.91c-20.56-17.842-16.752-34.827-11.6-37.682-5.747-3.568-15.813 16.427 8.673 37.682l25.723 26.454a15.874 15.874 0 0012.838 4.662 15.85 15.85 0 01-9.91-4.662z" fill="#FBC4AA"/><path d="M308.459 157.934s-2.13 20.827-3.224 25.668a14.888 14.888 0 00.654 7.375 196.523 196.523 0 0162.095-1.523c.516-1.908.601-3.907.25-5.852-1.107-4.84-3.237-25.668-3.237-25.668 13.944.916 19.037-8.421 19.037-8.421l-4.176-16.652c-5.64-16.76-26.283-18.64-33.493-18.782v3.64c0 3.283-4.164 5.947-9.292 5.947s-9.28-2.664-9.28-5.947v-3.093c.63-.13-27.365-2.165-34.266 18.235l-4.176 16.652s5.164 9.337 19.108 8.421z" fill="#7A287A"/><path d="M77.598 114.925s-2.13 20.827-3.225 25.668a14.888 14.888 0 00.655 7.374 196.523 196.523 0 0162.094-1.522c.517-1.908.602-3.907.25-5.852-1.106-4.841-3.236-25.668-3.236-25.668 13.944.915 19.036-8.422 19.036-8.422l-4.176-16.652c-5.64-16.76-26.282-18.639-33.492-18.781v3.64c0 3.282-4.164 5.946-9.292 5.946s-9.28-2.664-9.28-5.947v-3.092c.63-.131-27.366-2.165-34.266 18.234l-4.176 16.652s5.163 9.337 19.108 8.422z" fill="url(#d)" style="mix-blend-mode:multiply" transform="translate(230.861 43.01)"/><path d="M77.598 114.925s-2.13 20.827-3.225 25.668a14.888 14.888 0 00.655 7.374 196.523 196.523 0 0162.094-1.522c.517-1.908.602-3.907.25-5.852-1.106-4.841-3.236-25.668-3.236-25.668 13.944.915 19.036-8.422 19.036-8.422l-4.176-16.652c-5.64-16.76-26.282-18.639-33.492-18.781v3.64c0 3.282-4.164 5.946-9.292 5.946s-9.28-2.664-9.28-5.947v-3.092c.63-.131-27.366-2.165-34.266 18.234l-4.176 16.652s5.163 9.337 19.108 8.422z" fill="url(#e)" style="mix-blend-mode:overlay" transform="translate(230.861 43.01)"/><path d="M341.785 108.584c-5.366 3.402-10.91 4.258-14.111 4.877v4.341c0 3.33 4.224 6.043 9.435 6.043s9.423-2.712 9.423-6.043v-13.821a27.207 27.207 0 01-4.747 4.603z" fill="#FDD4C0"/><path d="M341.856 114.34a22.937 22.937 0 004.676-3.924v-6.435a27.207 27.207 0 01-4.76 4.603c-5.365 3.402-10.91 4.258-14.11 4.877v4.341c.006.67.178 1.328.5 1.915a40.935 40.935 0 0013.694-5.376z" fill="#FBC4AA"/><path d="M300.404 77.17c-.761-12.417 6.734-24.038 19.155-26.845a24.765 24.765 0 0118.683 3.215 24.753 24.753 0 0110.931 15.483c0 .13 0 .273.072.404l3.033 13.441a24.595 24.595 0 01-10.446 26.227 41.268 41.268 0 01-14.087 5.448 7.664 7.664 0 01-4.759-.618c-12.838-6.233-21.416-17.973-22.582-36.754z" fill="#FDD4C0"/><path d="M73.195 18.698a27.149 27.149 0 00-3.652 15.463c.107 1.76.309 3.437.547 5.079 2.106-.25 5.532-1.523 8.9-6.47l-1.392 4.626s2.38 3.51 7.448.333a31.622 31.622 0 007.971-7.017l-1.332 4.293s4.89 2.249 8.935-.927c4.045-3.176 6.199-14.13 6.199-14.13L94.266 14l-21.07 4.698z" fill="url(#f)" style="mix-blend-mode:multiply" transform="translate(230.861 43.01)"/><path d="M359.06 70.652c-2.391-17.651-15.17-29.415-35.955-26.322-23.153 3.473-26.175 23.206-26.413 30.688-.071 1.962.857 5.02 3.664 5.02 4.867 0 9.519-4.26 9.519-4.26s-4.105 5.032.119 5.032c6.413 0 14.563-10.265 14.563-10.265s-7.14 8.933.868 7.589c8.007-1.344 12.279-15.177 12.279-15.177a21.473 21.473 0 008.947 8.469 7.709 7.709 0 012.558-2.38c0 .131 0 .25.06.381l3.033 13.441c.06.238.095.476.131.714a25.21 25.21 0 01-2.594 16.926 12.205 12.205 0 007.282-7.625 43.999 43.999 0 002.237-12.287 48.112 48.112 0 00-.298-9.944z" fill="#5D463A"/><path d="M128.199 27.643C125.807 9.99 113.029-1.772 92.244 1.32 69.09 4.793 66.069 24.526 65.83 32.008c-.072 1.963.856 5.02 3.664 5.02 4.866 0 9.518-4.259 9.518-4.259s-4.104 5.032.12 5.032c6.412 0 14.562-10.265 14.562-10.265s-7.138 8.932.869 7.588c8.007-1.344 12.278-15.177 12.278-15.177a21.473 21.473 0 008.947 8.469 7.709 7.709 0 012.559-2.379c0 .13 0 .25.059.38l3.034 13.441c.06.238.095.476.13.714a25.21 25.21 0 01-2.593 16.926 12.205 12.205 0 007.282-7.624 43.999 43.999 0 002.236-12.287 48.112 48.112 0 00-.297-9.944z" fill="url(#g)" style="mix-blend-mode:multiply" transform="translate(230.861 43.01)"/><path d="M345.485 77.515a7.864 7.864 0 009.398 5.946 7.862 7.862 0 10-3.45-15.342 7.864 7.864 0 00-5.948 9.396z" fill="#FDD4C0"/><path d="M313.492 116.077c2.879 5.246 14.682 3.64 14.682 3.64v-.226a4.09 4.09 0 01-.405-1.748v-3.093a44.034 44.034 0 00-14.277 1.427z" fill="#000" opacity=".1" style="mix-blend-mode:multiply"/><path d="M379.441 178.369c-1.582-2.581-6.83-14.618-9.375-20.566a26.052 26.052 0 01-5.069.131l9.447 20.768a16.053 16.053 0 0026.009 4.663l16.133-16.653c-23.343 23.123-35.134 14.952-37.145 11.657z" fill="#FBC4AA"/><path d="M153.208 106.468l-4.176-16.653c-5.64-16.76-26.282-18.638-33.492-18.781v3.699h.13c21.726 0 30.292 25.074 33.088 36.361a16.143 16.143 0 004.45-4.626z" fill="url(#h)" style="mix-blend-mode:overlay" transform="translate(230.861 43.01)"/><path d="M97.312 76.731l.072-.226a3.9 3.9 0 01-.417-1.748v-3.093c.63-.13-27.365-2.165-34.266 18.235l-4.176 16.652a16.845 16.845 0 005.878 5.578c5.033-37.777 32.91-35.398 32.91-35.398z" fill="url(#i)" style="mix-blend-mode:multiply" transform="translate(230.861 43.01)"/><path d="M367.21 409.538c-14.122 8.16-37.038 8.16-51.16 0-14.123-8.16-14.135-21.41 0-29.534 14.134-8.124 37.05-8.16 51.16 0 14.111 8.16 14.135 21.375 0 29.534z" fill="#F1F1F2"/><path d="M211.079 366.529c-14.123 8.16-37.038 8.16-51.16 0-14.123-8.16-14.135-21.41 0-29.534 14.134-8.124 37.049-8.16 51.16 0 14.11 8.16 14.134 21.374 0 29.534z" fill="url(#j)" style="mix-blend-mode:multiply" transform="translate(156.131 43.01)"/><path d="M305.472 395.241h36.158v-9.516h-32.564a14.045 14.045 0 00-3.594 9.516z" fill="#000" opacity=".1" style="mix-blend-mode:multiply"/><path d="M367.21 409.538c-14.122 8.16-37.038 8.16-51.16 0-7.068-4.08-10.601-9.42-10.601-14.773v6.03c0 5.341 3.569 10.706 10.6 14.762 14.135 8.16 37.05 8.16 51.161 0 7.068-4.08 10.601-9.42 10.601-14.761v-6.03c0 5.352-3.533 10.692-10.6 14.772z" fill="#D0D2D3"/><path d="M211.079 366.529c-14.123 8.16-37.038 8.16-51.16 0-7.068-4.08-10.602-9.42-10.602-14.773v6.03c0 5.34 3.57 10.705 10.601 14.761 14.135 8.16 37.05 8.16 51.16 0 7.068-4.08 10.602-9.42 10.602-14.76v-6.031c0 5.352-3.534 10.693-10.601 14.773z" fill="url(#k)" style="mix-blend-mode:multiply" transform="translate(156.131 43.01)"/><path d="M334.075 282.35v108.585a3.735 3.735 0 002.213 3.08 11.817 11.817 0 0010.708 0 3.735 3.735 0 002.213-3.08V282.35h-15.134z" fill="#D0D2D3"/><path d="M177.943 239.34v108.586a3.735 3.735 0 002.213 3.08 11.817 11.817 0 0010.708 0 3.735 3.735 0 002.213-3.08V239.34h-15.134z" fill="url(#l)" style="mix-blend-mode:multiply" transform="translate(156.131 43.01)"/><path d="M177.943 239.34v108.586a3.735 3.735 0 002.213 3.08 11.817 11.817 0 0010.708 0 3.735 3.735 0 002.213-3.08V239.34h-15.134z" fill="url(#m)" style="mix-blend-mode:multiply" transform="translate(156.131 43.01)"/><path d="M177.943 299.824c5.021.226 10.078.226 15.11 0v-60.483h-15.11v60.483z" fill="url(#n)" style="mix-blend-mode:multiply" transform="translate(156.131 43.01)"/><path d="M177.943 239.34v5.698h10.233v106.896a9.52 9.52 0 002.665-.987 3.735 3.735 0 002.213-3.08V239.34h-15.11z" fill="url(#o)" opacity=".78" style="mix-blend-mode:soft-light" transform="translate(156.131 43.01)"/><path d="M268.673 334.377l5.948-3.854a113.16 113.16 0 00-7.9 39.252c-.487 22.457-.38 29.629-3.093 40.001l10.054 9.872a13.019 13.019 0 0014.277 2.677l1.059-.452s-9.982-7.637-10.875-15.69c-.892-8.052 17.633-70.843 17.347-90.85-.285-20.006-24.616-16.77-31.862-13.832l5.045 32.876z" fill="#FDD4C0"/><path d="M112.541 265.854l5.95-3.854a113.16 113.16 0 00-7.901 39.252c-.488 22.457-.38 29.63-3.094 40.001l10.054 9.873a13.019 13.019 0 0014.278 2.676l1.058-.452s-9.982-7.636-10.874-15.689c-.893-8.052 17.632-70.843 17.347-90.85-.286-20.006-24.617-16.771-31.863-13.833l5.045 32.876z" fill="url(#p)" style="mix-blend-mode:multiply" transform="translate(156.131 68.523)"/><path d="M298.572 422.777l-9.518-.892-1.06.452a13.019 13.019 0 01-14.277-2.677s-9.851-10.705-9.756-11.05c-.06 0-6.58 3.569-3.01 13.322 3.57 9.754 2.713 14.274 2.713 14.274a2.213 2.213 0 003.01 0v-10.943l11.898 6.887a6.89 6.89 0 006.936 0l13.385-7.72a.88.88 0 00-.321-1.653z" fill="#B43F62"/><path d="M142.44 354.254l-9.518-.892-1.059.452a13.019 13.019 0 01-14.277-2.676s-9.852-10.705-9.756-11.05c-.06 0-6.58 3.568-3.01 13.321 3.569 9.754 2.712 14.274 2.712 14.274a2.213 2.213 0 003.01 0V356.74l11.898 6.887a6.89 6.89 0 006.937 0l13.385-7.72a.88.88 0 00-.322-1.653z" fill="url(#q)" style="mix-blend-mode:multiply" transform="translate(156.131 68.523)"/><path d="M261.07 458.258c-8.329 4.841-21.964 4.841-30.34 0-8.376-4.841-8.328-12.668 0-17.509 8.329-4.84 21.964-4.84 30.34 0 8.376 4.841 8.388 12.68 0 17.509z" fill="#F1F1F2"/><path d="M245.9 445.031h-20a7.658 7.658 0 00-1.19 6.364h21.19v-6.364z" fill="#000" opacity=".1" style="mix-blend-mode:multiply"/><path d="M241.355 401.735v47.031a2.236 2.236 0 001.333 1.856 7.14 7.14 0 006.425 0 2.236 2.236 0 001.332-1.856v-47.03h-9.09z" fill="#D0D2D3"/><path d="M35.48 64.932v47.03c.07.817.581 1.528 1.332 1.856a7.14 7.14 0 006.425 0 2.236 2.236 0 001.332-1.855V64.932h-9.09z" fill="url(#r)" style="mix-blend-mode:multiply" transform="translate(205.876 336.803)"/><path d="M41.845 64.932v49.433a5.39 5.39 0 001.392-.547 2.236 2.236 0 001.332-1.855V64.932h-2.724z" fill="url(#s)" opacity=".78" style="mix-blend-mode:soft-light" transform="translate(205.876 336.803)"/><path d="M39.132 64.932h-3.653v47.03a2.235 2.235 0 001.333 1.856 5.95 5.95 0 002.32.714v-49.6z" fill="url(#t)" style="mix-blend-mode:multiply" transform="translate(205.876 336.803)"/><path d="M261.07 458.258c-8.329 4.841-21.964 4.841-30.34 0-4.2-2.379-6.294-5.579-6.294-8.754v3.568c0 3.176 2.095 6.34 6.294 8.766 8.329 4.83 21.964 4.83 30.34 0 4.188-2.379 6.294-5.59 6.294-8.766v-3.568c0 3.175-2.106 6.34-6.294 8.754z" fill="#D0D2D3"/><path d="M55.194 121.455c-8.329 4.84-21.963 4.84-30.34 0-4.2-2.38-6.293-5.579-6.293-8.755v3.569c0 3.175 2.094 6.34 6.294 8.766 8.328 4.829 21.963 4.829 30.339 0 4.188-2.38 6.294-5.59 6.294-8.766V112.7c0 3.176-2.106 6.34-6.294 8.755z" fill="url(#u)" style="mix-blend-mode:multiply" transform="translate(205.876 336.803)"/><path d="M274.146 377.126c-15.598 9.004-40.893 9.004-56.491 0-15.598-9.004-15.598-23.61 0-32.615 15.598-9.004 40.893-9.004 56.49 0 15.599 9.004 15.599 23.61 0 32.615z" fill="#B2E0E6"/><path d="M68.27 40.322c-15.598 9.004-40.893 9.004-56.491 0-15.598-9.004-15.598-23.61 0-32.614 15.598-9.004 40.893-9.004 56.49 0 15.599 9.004 15.599 23.61 0 32.614z" fill="url(#v)" style="mix-blend-mode:multiply" transform="translate(205.876 336.803)"/><path d="M274.146 344.547c-15.598-9.004-40.893-9.004-56.491 0-6.64 3.842-10.447 8.683-11.434 13.69a27.612 27.612 0 0010.363 9.647c16.788 9.694 44.022 9.694 60.786 0a30.564 30.564 0 008.471-6.935c.036-5.97-3.82-11.906-11.695-16.402z" fill="#000" opacity=".1" style="mix-blend-mode:multiply"/><path d="M274.146 377.126c-15.598 9.004-40.893 9.004-56.491 0-7.793-4.508-11.696-10.408-11.696-16.308v20.602c0 5.947 3.903 11.799 11.696 16.307 15.598 9.004 40.893 9.004 56.49 0 7.794-4.508 11.696-10.408 11.696-16.307v-20.602c0 5.9-3.902 11.8-11.695 16.308z" fill="#8263C9"/><path d="M68.27 16.533c-15.598 9.004-40.893 9.004-56.491 0C3.986 12.025.083 6.126.083.226v20.601c0 5.947 3.903 11.8 11.696 16.308 15.598 9.004 40.893 9.004 56.49 0 7.794-4.508 11.696-10.408 11.696-16.308V.226c0 5.9-3.902 11.8-11.695 16.307z" transform="translate(205.876 360.592)" fill="url(#w)"/><path d="M50.994 46.174c-13.492 2.225-28.555.274-39.263-5.852C3.938 35.814.036 29.915.036 24.015v20.601c0 5.947 3.902 11.8 11.695 16.308C22.344 67.049 37.454 69 50.994 66.788V46.174z" fill="url(#x)" style="mix-blend-mode:multiply" transform="translate(205.876 336.803)"/><path d="M284.556 366.647l-.404.904c-.395.831-.86 1.627-1.392 2.378a25.815 25.815 0 01-7.246 6.828c-.857.583-1.844 1.106-2.796 1.63-.488.261-.976.535-1.487.796l-1.607.726c-.547.238-1.106.5-1.665.726-.56.226-1.19.428-1.75.63-1.188.47-2.404.867-3.64 1.19-1.19.38-2.534.63-3.843.903-1.309.274-2.641.464-3.986.666a69.645 69.645 0 01-8.221.619c-1.38 0-2.76-.071-4.14-.095-1.38-.024-2.737-.238-4.093-.357l-3.998-.583c-1.297-.285-2.594-.523-3.855-.82a39.808 39.808 0 01-3.676-1.06c-1.19-.404-2.38-.808-3.427-1.272-1.047-.464-2.154-.928-3.141-1.44l-2.844-1.557a28.995 28.995 0 01-4.556-3.343 24.35 24.35 0 01-2.987-3.152 18.293 18.293 0 01-1.547-2.32c-.297-.57-.464-.867-.464-.867l.536.82a23.005 23.005 0 001.701 2.177 29.52 29.52 0 007.758 5.947l2.831 1.404c.988.464 2.059.844 3.13 1.284 1.07.44 2.236.738 3.39 1.118 1.154.381 2.38.63 3.57.964 1.19.333 2.51.5 3.783.75l3.926.535c1.321.083 2.666.214 4.01.285 1.344.071 2.7.083 4.045 0a69.562 69.562 0 008.055-.5c1.309-.19 2.63-.32 3.903-.606 1.273-.286 2.546-.476 3.76-.833a37.034 37.034 0 003.569-1.035l1.713-.547c.56-.202 1.094-.428 1.63-.642l1.594-.63c.512-.238 1.011-.5 1.511-.75.957-.443 1.89-.935 2.796-1.475a27.363 27.363 0 007.46-6.28c.57-.721 1.091-1.48 1.559-2.272l.535-.844z" opacity=".4" fill="#FFF"/><path d="M290.862 348.46l5.949-3.854a113.16 113.16 0 00-7.9 39.252c-.488 22.457-.37 29.641-3.094 40.001l10.054 9.873a13.019 13.019 0 0014.277 2.676l1.071-.452s-9.994-7.636-10.886-15.677c-.893-8.04 17.644-70.844 17.347-90.862-.298-20.019-24.617-16.771-31.863-13.833l5.045 32.876z" fill="#FDD4C0"/><path d="M134.73 279.937l5.95-3.854a113.16 113.16 0 00-7.9 39.252c-.488 22.457-.37 29.641-3.094 40.001l10.054 9.873a13.019 13.019 0 0014.277 2.676l1.07-.452s-9.993-7.636-10.886-15.677c-.892-8.04 17.645-70.843 17.347-90.862-.297-20.018-24.616-16.771-31.862-13.833l5.045 32.876z" fill="url(#y)" style="mix-blend-mode:multiply" transform="translate(156.131 68.523)"/><path d="M278.19 309.827c-6.983-4.83-15.764-9.516-15.764-9.516l-9.268 5.353-2.142 13.143c-20.083 18.888-40.976.095-41.202-.095 0 0-15.634 27.357 6.651 42.083 22.285 14.725 43.475 13.274 73.54-10.004-.012.024 11.268-24.99-11.814-40.964z" fill="#7A287A"/><path d="M278.19 309.827c-6.983-4.83-15.764-9.516-15.764-9.516l-9.268 5.353-2.142 13.143c-20.083 18.888-40.976.095-41.202-.095 0 0-.595 1.058-1.392 2.855 4.76 4.757 16.562 13.464 36.074 7.838 0 0 6.568 14.369 20.964 1.832l10.827-9.706s12.636 5.495 12.636 24.443l2.76-.428c1.94-8.136 3.058-24.265-13.492-35.72z" fill="#6B1F6B"/><path d="M214.62 353.967a27.86 27.86 0 01-9.791-10.705c.976 6.257 4.176 12.584 11.624 17.52 22.285 14.75 43.475 13.275 73.54-10.003a35.32 35.32 0 002.094-7.208c-31.648 24.443-53.992 25.954-77.466 10.396z" fill="#6B1F6B"/><path d="M122.06 241.304c-6.985-4.83-15.765-9.516-15.765-9.516l-9.269 5.353-2.141 13.143c-20.084 18.889-40.976.095-41.202-.095 0 0-15.634 27.357 6.65 42.083 22.285 14.725 43.475 13.274 73.54-10.004-.011.024 11.268-24.99-11.814-40.964z" fill="url(#z)" style="mix-blend-mode:multiply" transform="translate(156.131 68.523)"/><path d="M122.06 241.304c-6.985-4.83-15.765-9.516-15.765-9.516l-9.269 5.353-2.141 13.143c-20.084 18.889-40.976.095-41.202-.095 0 0-15.634 27.357 6.65 42.083 22.285 14.725 43.475 13.274 73.54-10.004-.011.024 11.268-24.99-11.814-40.964z" fill="url(#A)" style="mix-blend-mode:multiply" transform="translate(156.131 68.523)"/><path d="M430.518 411.643s5.64 10.194-.868 13.94c-6.508 3.748-14.087 4.426-23.617-2.378-9.53-6.804-22.035-12.014-22.035-20.03 0-8.017 10.827-11.502 21.13-5.59 10.304 5.91 25.39 14.058 25.39 14.058z" fill="#12103D"/><path d="M434.171 330.083v80.335s-13.218 8.255-26.104 0v-89.791c0-16.01 15.015-28.547 30.935-27.274l-4.83 36.73z" fill="#535A9A"/><path d="M278.04 261.56v80.336s-13.219 8.254-26.104 0v-89.792c0-16.01 15.015-28.547 30.934-27.274l-4.83 36.73z" fill="url(#B)" style="mix-blend-mode:multiply" transform="translate(156.131 68.523)"/><path d="M278.04 261.56v80.336s-13.219 8.254-26.104 0v-89.792c0-16.01 15.015-28.547 30.934-27.274l-4.83 36.73z" fill="url(#C)" style="mix-blend-mode:multiply" transform="translate(156.131 68.523)"/><path d="M422.63 207.035c-44.736-25.811-117.265-25.811-162 0-24.474 14.13-35.527 33.042-33.22 51.515-2.307 18.472 8.746 37.396 33.22 51.515 44.735 25.822 117.264 25.822 162 0 24.462-14.12 35.515-33.043 33.219-51.515 2.26-18.473-8.757-37.385-33.219-51.515z" fill="#FFF"/><path d="M422.63 300.537c-44.736 25.823-117.265 25.823-162 0-44.736-25.823-44.736-67.68 0-93.502 44.735-25.823 117.264-25.811 162 0 44.736 25.81 44.724 67.691 0 93.502z" fill="#F1F1F2"/><path d="M196.528 113.604c-44.736 25.823-117.265 25.823-162 0-44.736-25.823-44.736-67.68 0-93.502 44.735-25.823 117.264-25.811 162 0 44.736 25.81 44.724 67.691 0 93.502z" fill="url(#D)" style="mix-blend-mode:overlay" transform="translate(226.102 186.933)"/><path d="M196.528 113.604c-44.736 25.823-117.265 25.823-162 0-44.736-25.823-44.736-67.68 0-93.502 44.735-25.823 117.264-25.811 162 0 44.736 25.81 44.724 67.691 0 93.502z" fill="url(#E)" style="mix-blend-mode:multiply" transform="translate(226.102 186.933)"/><path fill="#000" opacity=".1" style="mix-blend-mode:multiply" d="M282.022 246.988h-37.918l15.383 17.735z"/><path d="M422.63 300.537c-44.736 25.823-117.265 25.823-162 0-20.227-11.692-31.327-26.68-33.22-41.987-2.307 18.472 8.746 37.396 33.22 51.515 44.735 25.822 117.264 25.822 162 0 24.462-14.12 35.515-33.043 33.219-51.515-1.904 15.308-12.957 30.295-33.219 41.987z" fill="#C5C7C9"/><path d="M196.528 113.604c-44.736 25.823-117.265 25.823-162 0C14.3 101.912 3.2 86.924 1.307 71.617c-2.307 18.472 8.746 37.396 33.22 51.515 44.735 25.823 117.264 25.823 162 0 24.462-14.12 35.515-33.043 33.219-51.515-1.904 15.308-12.957 30.295-33.219 41.987z" fill="url(#F)" style="mix-blend-mode:multiply" transform="translate(226.102 186.933)"/><path d="M196.528 113.604c-44.736 25.823-117.265 25.823-162 0C14.3 101.912 3.2 86.924 1.307 71.617c-2.307 18.472 8.746 37.396 33.22 51.515 44.735 25.823 117.264 25.823 162 0 24.462-14.12 35.515-33.043 33.219-51.515-1.904 15.308-12.957 30.295-33.219 41.987z" fill="url(#G)" style="mix-blend-mode:multiply" transform="translate(226.102 186.933)"/><path d="M430.602 295.446l-1.678 1.19a108.955 108.955 0 01-4.866 3.176c-1.059.677-2.296 1.332-3.57 2.045l-4.294 2.308c-.774.404-1.547.856-2.38 1.26l-2.618 1.19-5.663 2.462c-1.999.81-4.14 1.475-6.318 2.26-2.177.785-4.438 1.594-6.829 2.189l-7.317 2.01c-2.523.56-5.116 1.07-7.758 1.618-2.64.547-5.33.94-8.078 1.332-2.749.392-5.497.868-8.329 1.035l-8.495.713-8.59.25h-4.295l-4.295-.13-4.271-.132c-1.416-.083-2.832-.226-4.236-.344l-4.2-.357c-1.392-.131-2.784-.203-4.152-.44l-8.103-1.19c-1.344-.166-2.641-.476-3.938-.725l-3.843-.797-3.748-.785c-1.19-.31-2.38-.666-3.569-.976l-6.925-1.915-6.33-2.212-2.974-1.047c-.963-.357-1.88-.785-2.772-1.19l-5.092-2.247a40.576 40.576 0 01-4.378-2.177l-3.713-1.95a57.708 57.708 0 01-5.009-2.939l-1.749-1.094 1.773 1.047a57.34 57.34 0 005.08 2.807l3.7 1.867a44.968 44.968 0 004.403 2.07l5.14 2.093c.904.357 1.808.785 2.772 1.118l2.986 1 6.33 2.105 6.913 1.808c1.19.297 2.38.642 3.569.916l3.748.737c2.534.452 5.092 1.083 7.745 1.451l8.055 1.118c1.368.226 2.748.286 4.14.417l4.177.333c1.392.107 2.796.238 4.211.32l4.248.108 4.271.107 2.13.06 2.142-.06 8.542-.226 8.448-.666c2.808-.155 5.556-.63 8.328-.987 2.772-.357 5.426-.702 8.031-1.297l7.722-1.534 7.305-1.903c2.38-.547 4.64-1.344 6.83-2.07 2.189-.726 4.318-1.392 6.305-2.165l5.664-2.379 2.641-1.07c.845-.38 1.63-.82 2.38-1.19l4.354-2.2c1.356-.678 2.582-1.285 3.653-1.939a94.543 94.543 0 004.937-3.057l1.702-1.13z" fill="#FFF"/><path fill="#515150" d="M292.932 201.599l-2.13 1.249-8.78 44.14 54.73 31.604 2.13-1.25 8.792-44.14z"/><path fill="#434343" d="M300.356 299.586l-54.753-31.616 38.513-22.23 54.766 31.603z"/><path fill="#353535" d="M308.376 288.785l-42.928-24.776 18.073-10.217 42.927 24.776z"/><path d="M310.35 287.68l.774-.441-2.38-1.392 2.463-1.439 2.38 1.416.773-.44-2.38-1.416 2.452-1.451 2.486 1.451.785-.428-2.51-1.463 2.463-1.451 2.546 1.487.773-.429-2.558-1.498 2.463-1.44 2.594 1.523.773-.44-2.605-1.535 2.165-1.272-.773-.44-2.154 1.272-2.082-1.19 2.154-1.26-.774-.44-2.141 1.19-2.083-1.19 2.142-1.249-.773-.44-2.13 1.249-2.082-1.19 2.13-1.19-.774-.451-2.118 1.19-2.07-1.19 2.094-1.19-.761-.44-2.094 1.19-2.082-1.19 2.082-1.189-.762-.44-2.082 1.19-2.082-1.19 2.07-1.19-.773-.44-2.058 1.19-2.083-1.19 2.059-1.19-.774-.44-2.046 1.19-2.082-1.19 2.034-1.189-.761-.44-2.035 1.19-2.058-1.19 2.01-1.19-.749-.44-2.01 1.19-2.106-1.19 2.01-1.189-.773-.44-1.999 1.19-2.118-1.38 1.987-1.19-.773-.44-1.975 1.19-2.082-1.19 1.963-1.19-.762-.44-1.963 1.19-2.082-1.19 1.951-1.189-.761-.44-1.951 1.19-2.38-1.392-.69.333 2.38 1.392-2.451 1.45-2.38-1.427-.785.44 2.45 1.428-2.557 1.475-2.487-1.451-.773.44 2.498 1.463-2.462 1.439-2.535-1.487-.785.44 2.57 1.499-2.463 1.44-2.606-1.523-.773.44 2.618 1.522-2.166 1.273.762.44 2.165-1.26 2.082 1.189-2.153 1.273.761.44 2.154-1.261 2.07 1.19-2.13 1.248.774.452 2.117-1.249 2.082 1.19-2.117 1.19.773.44 2.106-1.19 13.433 7.85-2.023 1.19.761.44 2.035-1.19 2.07 1.19-2.01 1.19.76.44 2.012-1.19 2.082 1.19-2 1.189.774.452 1.987-1.19 2.082 1.19-1.987 1.19.774.44 1.975-1.19 2.07 1.19-1.963 1.189.773.44 1.951-1.19 2.083 1.19-1.952 1.19.774.451 1.939-1.19 2.38 1.535zm.845-4.164l-2.082-1.19 2.463-1.439 2.07 1.19-2.45 1.44zm-2.463-5.21l-2.082-1.19 2.463-1.438 2.082 1.189-2.463 1.44zm3.225-.987l2.07 1.19-2.45 1.439-2.083-1.19 2.463-1.439zm-6.068-.666l-2.082-1.19 2.463-1.439 2.082 1.19-2.463 1.439zM303.045 275l-2.07-1.19 2.451-1.44 2.082 1.19-2.463 1.44zm-2.831-1.666l-2.094-1.19 2.462-1.45 2.083 1.19-2.451 1.45zm-2.856-1.665l-2.07-1.19 2.463-1.439 2.07 1.19-2.463 1.44zm-2.832-1.653l-2.105-1.19 2.462-1.439 2.106 1.19-2.463 1.439zm-2.867-1.677l-2.034-1.19 2.462-1.439 2.035 1.19-2.463 1.439zm-2.76-1.618l-2.13-1.19 2.463-1.439 2.118 1.19-2.451 1.44zm-2.891-1.677l-2.07-1.19 2.45-1.45 2.083 1.189-2.463 1.45zm-2.844-1.665l-2.07-1.19 2.463-1.439 2.07 1.19-2.463 1.439zm-.75.452l-2.462 1.439-2.082-1.19 2.462-1.439 2.083 1.19zm.762.44l2.07 1.19-2.45 1.45-2.083-1.19 2.463-1.45zm2.832 1.665l2.13 1.19-2.452 1.45-2.13-1.248 2.452-1.392zm2.855 1.665l2.035 1.19-2.463 1.427-2.023-1.19 2.451-1.427zm2.796 1.63l2.106 1.19-2.463 1.438-2.106-1.189 2.463-1.44zm2.867 1.677l2.07 1.19-2.462 1.45-2.07-1.189 2.462-1.451zm2.832 1.653l2.094 1.19-2.463 1.45-2.094-1.189 2.463-1.45zm2.856 1.665l2.07 1.19-2.415 1.463-2.083-1.19 2.428-1.463zm2.843 1.654l2.07 1.19-2.45 1.45-2.083-1.19 2.463-1.45zm2.832 1.665l2.082 1.19-2.463 1.439-2.07-1.19 2.45-1.439zm2.843 1.653l2.083 1.19-2.463 1.45-2.082-1.189 2.462-1.45zm5.676 2.38l-2.07-1.19 2.45-1.44 2.083 1.19-2.463 1.44zm3.57-4.544l2.081 1.189-2.463 1.451-2.082-1.19 2.463-1.45zm-2.844-1.654l2.082 1.19-2.463 1.439-2.07-1.19 2.45-1.439zm-2.832-1.665l2.07 1.19-2.463 1.45-2.07-1.189 2.463-1.451zm-2.844-1.653l2.07 1.19-2.45 1.438-2.083-1.19 2.463-1.438zm-2.843-1.654l2.082 1.19-2.463 1.45-2.082-1.189 2.463-1.45zm-2.844-1.665l2.082 1.19-2.415 1.51-2.082-1.19 2.415-1.51zm-2.843-1.665l2.082 1.19-2.463 1.439-2.07-1.19 2.45-1.44zm-2.844-1.665l2.082 1.19-2.463 1.438-2.094-1.19 2.475-1.438zm-.762-.44l-2.474 1.439-2.035-1.19 2.451-1.439 2.058 1.19zm-4.901-2.867l2.094 1.19-2.416 1.558-2.106-1.19 2.428-1.558zm-2.844-1.653l2.07 1.19-2.45 1.438-2.083-1.19 2.463-1.438zm-2.844-1.666l2.083 1.19-2.463 1.451-2.082-1.19 2.462-1.45zm-2.831-1.653l2.07 1.19-2.463 1.439-2.07-1.19 2.463-1.439zm-3.225 1.891l2.07 1.19-2.45 1.439-2.082-1.19 2.462-1.439zm-3.224 1.88l2.082 1.19-2.427 1.57-2.07-1.19 2.415-1.57zm-3.57 4.543l-2.07-1.19 2.463-1.438 2.07 1.19-2.462 1.438zm2.844 1.666l-2.07-1.19 2.451-1.44 2.082 1.19-2.463 1.44zm2.844 1.653l-2.082-1.19 2.463-1.439 2.082 1.19-2.463 1.439zm.761.452l2.463-1.451 2.13 1.249-2.451 1.45-2.142-1.248zm2.868 1.665l2.45-1.44 2.023 1.19-2.474 1.44-2-1.19zm2.76 1.618l2.475-1.44 2.106 1.19-2.463 1.44-2.118-1.19zm2.88 1.689l2.462-1.451 2.07 1.19-2.462 1.438-2.07-1.177zm4.925 2.866l-2.094-1.19 2.463-1.438 2.094 1.19-2.463 1.438zm2.844 1.666l-2.07-1.19 2.45-1.44 2.082 1.19-2.462 1.44zm2.843 1.653l-2.082-1.19 2.463-1.439 2.082 1.19-2.463 1.439zm2.844 1.665l-2.082-1.19 2.462-1.439 2.07 1.19-2.45 1.44zm2.831 1.653l-2.07-1.189 2.451-1.44 2.082 1.19-2.463 1.44zm.762.452l2.463-1.45 2.082 1.189-2.463 1.439-2.082-1.178z" fill="#232323"/><path fill="#353535" d="M282.01 283.98l-11.66-6.732 4.902-2.784 11.672 6.733z"/><path fill="#5C5C5C" d="M338.882 277.343v2.307l-38.526 22.231v-2.295z"/><path fill="#515150" d="M300.356 301.881v-2.295l-54.753-31.616v2.308z"/><path fill="#49494A" d="M282.022 246.988l8.78-44.14 54.742 31.603-8.792 44.14z"/><path fill="url(#H)" style="mix-blend-mode:multiply" d="M36.883 45.782l8.78-44.14 54.743 31.603-8.793 44.14z" transform="translate(245.139 201.206)"/><path fill="#8263C9" d="M286.924 244.133l6.77-34.042 46.83 27.167-6.782 34.042z"/><path fill="#5C5C5C" d="M336.752 278.592l2.13-1.25 8.792-44.14-2.13 1.25z"/><path fill="#515150" d="M345.544 234.451l-54.742-31.603 2.13-1.25 54.742 31.604z"/><path d="M302.462 291.39a24.988 24.988 0 01-11.112 5.293l-28.365-16.367-8.126 4.604 35.23 13.084a120.269 120.269 0 01-14.73 19.185c1.083.44 2.166.892 3.272 1.32l6.675-7.136 6.746-12.596 8.328 3.092-7.65-4.377 2.76-.702a31.088 31.088 0 006.972-5.4z" fill="#000" opacity=".1" style="mix-blend-mode:multiply"/><path fill="#FFF" opacity=".3" style="mix-blend-mode:overlay" d="M340.523 237.258l-40.167 14.666 5.128 2.974 33.933-12.05zm-29.28 21.006l26.948-9.301-.404 2.022-24.688 8.338z"/><path d="M196.262 250.854c-5.699 22.005-11.1 54.167 6.033 49.48l.309-.094c-6.96-21.03-8.031-37.634-6.342-49.386zm79.383 12.441c-3.177-2.771-9.257-6.59-16.907-4.365 2.653 3.77 5.306 8.326 6.127 12.49a17.217 17.217 0 003.653-2.058 16.302 16.302 0 016.318-2.867 1.844 1.844 0 00.809-3.2z" fill="#FDD4C0"/><path d="M223.996 232.56s-14.194-7.267-21.13.785c-7.948 9.218-13.873 38.824 6.936 85.39 0 0 21.036 19.103 41.226.108l4.688-28.844s4.902-3.664 8.804-12.894c2.285-5.424-2.034-13.964-5.949-20.066a34.19 34.19 0 00-11.41-10.92l-23.165-13.559z" fill="#F05751"/><path d="M251.088 318.843l1.606-9.897-14.1-47.363s-5.353 17.675-.32 46.388a11.321 11.321 0 01-10.566 13.405 34.513 34.513 0 01-6.044-.357c-6.627-.975-10.541-2.914-12.814-4.579l1.012 2.379s21 19.02 41.226.024z" fill="#E14949"/><path d="M67.865 164.037s-14.194-7.267-21.13.785c-7.948 9.219-13.873 38.824 6.936 85.39 0 0 21.035 19.103 41.226.108l4.687-28.844s4.902-3.664 8.805-12.894c2.284-5.424-2.035-13.964-5.95-20.066a34.19 34.19 0 00-11.41-10.919l-23.164-13.56z" fill="url(#I)" style="mix-blend-mode:multiply" transform="translate(156.131 68.523)"/><path d="M67.865 164.037s-14.194-7.267-21.13.785c-7.948 9.219-13.873 38.824 6.936 85.39 0 0 21.035 19.103 41.226.108l4.687-28.844s4.902-3.664 8.805-12.894c2.284-5.424-2.035-13.964-5.95-20.066a34.19 34.19 0 00-11.41-10.919l-23.164-13.56z" fill="url(#J)" style="mix-blend-mode:multiply" transform="translate(156.131 68.523)"/><path d="M196.262 250.854c-1.403 5.424-2.796 11.478-3.83 17.425a127.929 127.929 0 006.091 32.472 11.199 11.199 0 003.772-.416l.309-.095c-6.96-21.03-8.031-37.634-6.342-49.386z" fill="#FBC4AA"/><path d="M236.81 234.344s-1.19 3.569 4.498 8.445c0 0-5.95 4.984-12.053 3.474-6.103-1.511-11.112-6.293-9.697-9.266a59.463 59.463 0 002.309-5.603l14.943 2.95z" fill="#FDD4C0"/><path d="M230.23 239.102a39.344 39.344 0 009.424 2.046c-3.677-4.02-2.796-6.804-2.796-6.804l-14.944-2.95s-.262.738-.69 1.856a23.32 23.32 0 009.007 5.852z" fill="#FBC4AA"/><path d="M257.036 192.94c-1.986-12.276-11.897-21.958-24.604-21.958-13.674 0-24.76 11.082-24.76 24.753v14.202a24.598 24.598 0 0016.05 23.277 41.13 41.13 0 0014.944 2.213 7.628 7.628 0 004.521-1.654c11.125-8.909 16.907-22.219 13.85-40.833z" fill="#FDD4C0"/><path d="M254.871 185.72s1.059 13.63-15.86 20.577a34.799 34.799 0 00-7.78 17.568 9.86 9.86 0 01-13.993 7.684c-8.126-3.782-16.454-11.526-16.454-27.417 0-30.925 21.737-36.409 31.695-36.409 10.566.036 22.392 6.376 22.392 17.997z" fill="#5D463A"/><path d="M98.74 117.197s1.059 13.63-15.86 20.577a34.799 34.799 0 00-7.781 17.568 9.86 9.86 0 01-13.992 7.684c-8.126-3.782-16.455-11.525-16.455-27.417 0-30.925 21.738-36.409 31.696-36.409 10.565.036 22.392 6.376 22.392 17.997z" fill="url(#K)" style="mix-blend-mode:multiply" transform="translate(156.131 68.523)"/><path d="M209.243 200.885c.345-5.103-2.499-9.825-7.543-10.705-12.303-2.13-13.552 14.63-14.468 19.911-2.201 12.74-10.292 22.921-10.292 22.921 19.608 5.115 31.244-15.855 32.303-32.127z" fill="#523D33"/><path d="M320.761 436.86l-9.518-.892-1.07.452a13.019 13.019 0 01-14.278-2.677s-9.852-10.705-9.756-11.05c0 0-6.568 3.569-3.01 13.334 3.557 9.766 2.712 14.274 2.712 14.274a2.225 2.225 0 003.01 0v-10.955l11.898 6.899a6.95 6.95 0 006.936 0l13.386-7.732a.88.88 0 00-.31-1.653z" fill="#B43F62"/><path d="M249.898 250.997c-4.034 0-12.088 2.26-12.088 17.841 0 15.582 2.7 74.638 22.01 61.733 19.31-12.906 31.09-33.793 31.09-33.793s9.423-1.38 14.36-8.468a16.465 16.465 0 015.08-4.758 1.844 1.844 0 00-.25-3.283c-5.567-2.379-17.43-4.83-25.365 11.038l-23.891 16.652a1.19 1.19 0 01-2.023-1.058c.785-11.764 2.558-55.904-8.923-55.904z" fill="#FDD4C0"/><path d="M261.796 325.658c-19.31 12.894-21.5-44.925-21.5-60.507a26.423 26.423 0 011.975-11.002c-2.486 2.533-4.461 6.97-4.461 14.677 0 15.582 2.7 74.638 22.01 61.733 14.694-9.801 24.986-24.217 29.103-30.581-5.093 7.244-14.837 17.461-27.127 25.68z" fill="#FBC4AA"/><path d="M241.355 211.328a6.09 6.09 0 01-6.091 6.09 6.09 6.09 0 110-12.18 6.09 6.09 0 016.091 6.09z" fill="#FDD4C0"/><path d="M140.703 276.083l.012-.012a1.785 1.785 0 012.38 2.141c-2.19 7.423-6.901 25.645-7.139 43.415-.31 23.064-3.177 36.73-3.177 36.73l-3.07-3.02c2.725-10.36 2.606-17.545 3.094-40.002a113.16 113.16 0 017.9-39.252zM6.37 32.39v-4.145c-3.15-.166-4.882-.83-6.3-1.658l.945-4.477c1.575.83 3.623 1.658 5.985 1.658 2.048 0 3.465-.829 3.465-2.32 0-1.493-1.102-2.322-3.937-3.317C2.59 16.805.07 14.816.07 11.168c0-3.316 1.418-5.968 6.143-6.797V.889h3.15v3.316c3.15.166 4.252.663 5.355 1.326l-.945 4.31c-.945-.497-2.52-1.326-5.198-1.326-2.362 0-3.15.995-3.15 2.156 0 1.326 1.26 1.99 4.41 3.316 4.253 1.658 5.985 3.647 5.985 7.129 0 3.481-1.732 6.3-6.457 7.129v4.145H6.37z" fill="url(#L)" style="mix-blend-mode:multiply" transform="translate(156.131 68.523)"/><path d="M497.051 265.448a30.818 30.818 0 01-6.544 3.652c0-.262-.69 23.789-3.39 37.777 12.92 2.866 12.635-20.958 9.934-41.429z" fill="#FDD4C0"/><path d="M493.803 268.422l-.167-.737a29.844 29.844 0 01-3.081 1.463c0-.262-.69 23.788-3.391 37.776a7.819 7.819 0 004.152-.095c4.105-11.466 2.487-38.407 2.487-38.407z" fill="#FBC4AA"/><path d="M498.562 264.568c-1.309-10.098-3.189-19.376-4.319-24.229-3.57-15.177-16.157-15.023-20.071-14.119a.488.488 0 00-.19 0l-36.17 19.662a19.878 19.878 0 00-6.889 7.006c-5.604 6.22-6.996 25.977-6.758 40.298a16.315 16.315 0 005.128 2.022l-.107 37.111c25.901 19.234 48.876 3.045 54.67-1.736a5.947 5.947 0 001.916-2.843c6.508-21.232 5.128-41.952 4.819-58.723 2.462.083 4.77-1.035 7.971-4.449z" fill="#B43F62"/><path d="M482.857 233.107c4.045 4.699 7.329 18.104 7.65 35.993 2.546 0 4.855-1.118 8.02-4.532-1.31-10.098-3.19-19.376-4.32-24.229-3.569-15.177-16.157-15.023-20.071-14.119.63-.083 3.01.19 8.72 6.887z" fill="#B43F62"/><path d="M9.28 8.112c4.046 4.698 7.33 18.103 7.65 35.993 2.547 0 4.855-1.118 8.02-4.532-1.31-10.098-3.189-19.376-4.32-24.23C17.062.168 4.475.322.56 1.226c.63-.083 3.01.19 8.72 6.887z" opacity=".78" transform="translate(473.577 224.995)" fill="url(#M)"/><g transform="translate(401 332.046)"><ellipse fill="#F1F1F2" cx="40.512" cy="112.201" rx="21.464" ry="12.382"/><path d="M40.512 108.668h-20.56a7.385 7.385 0 00-.618 5.436h21.178v-5.436z" fill="#000" opacity=".1" style="mix-blend-mode:multiply"/><path d="M35.967 64.444v47.031a2.26 2.26 0 001.333 1.856 7.14 7.14 0 006.436 0 2.284 2.284 0 001.333-1.856v-47.03h-9.102z" fill="#D0D2D3"/><path d="M35.967 64.444v47.031a2.26 2.26 0 001.333 1.856 7.14 7.14 0 006.436 0 2.284 2.284 0 001.333-1.856v-47.03h-9.102z" fill="url(#N)" style="mix-blend-mode:multiply"/><path d="M42.344 64.444v49.422a5.284 5.284 0 001.392-.535 2.284 2.284 0 001.333-1.856v-47.03h-2.725z" fill="url(#O)" opacity=".78" style="mix-blend-mode:soft-light"/><path d="M39.62 64.444h-3.653v47.031a2.26 2.26 0 001.333 1.856 5.95 5.95 0 002.32.713v-49.6z" fill="url(#t)" style="mix-blend-mode:multiply"/><path d="M55.694 120.967c-8.388 4.841-21.976 4.841-30.352 0-4.188-2.379-6.282-5.59-6.282-8.754v3.568c0 3.164 2.094 6.34 6.282 8.754 8.329 4.841 21.964 4.841 30.352 0 4.188-2.379 6.282-5.59 6.282-8.754v-3.568c0 3.163-2.094 6.34-6.282 8.754z" fill="#D0D2D3"/><path d="M55.694 120.967c-8.388 4.841-21.976 4.841-30.352 0-4.188-2.379-6.282-5.59-6.282-8.754v3.568c0 3.164 2.094 6.34 6.282 8.754 8.329 4.841 21.964 4.841 30.352 0 4.188-2.379 6.282-5.59 6.282-8.754v-3.568c0 3.163-2.094 6.34-6.282 8.754z" fill="url(#P)" style="mix-blend-mode:multiply"/><path d="M68.757 39.858c-15.598 9.005-40.892 9.005-56.49 0-15.598-9.004-15.598-23.598 0-32.602 15.598-9.004 40.892-9.004 56.49 0 15.598 9.004 15.598 23.563 0 32.602z" fill="#B2E0E6"/><path d="M68.757 39.858c-15.598 9.005-40.892 9.005-56.49 0-15.598-9.004-15.598-23.598 0-32.602 15.598-9.004 40.892-9.004 56.49 0 15.598 9.004 15.598 23.563 0 32.602z" fill="url(#Q)" style="mix-blend-mode:multiply"/><path d="M68.757 7.22c-15.598-9.004-40.892-9.004-56.49 0C5.65 11.038 1.844 15.88.845 20.863c.321 8.326 6.77 11.704 12.076 14.892 14.73 8.861 40.096 8.873 56.895-3.842a25.048 25.048 0 008.888-15.142 24.982 24.982 0 00-9.947-9.551z" fill="#000" opacity=".1" style="mix-blend-mode:multiply"/><path d="M68.757 39.858c-15.598 9.005-40.892 9.005-56.49 0C4.474 35.362.57 29.463.57 23.563v20.566c0 5.947 3.903 11.799 11.696 16.307 15.598 9.004 40.892 9.004 56.49 0 7.805-4.508 11.696-10.408 11.696-16.307V23.527c0 5.9-3.89 11.8-11.696 16.331z" fill="#8263C9"/><path d="M68.757 17.259c-15.598 9.004-40.892 9.004-56.49 0C4.474 12.763.57 6.863.57.963V21.53c0 5.947 3.903 11.8 11.696 16.307 15.598 9.004 40.892 9.004 56.49 0 7.805-4.508 11.696-10.407 11.696-16.307V.928c0 5.9-3.89 11.8-11.696 16.33z" transform="translate(0 22.6)" fill="url(#w)"/><path d="M51.482 45.687c-13.492 2.212-28.555.261-39.263-5.864C4.426 35.327.524 29.427.524 23.527v20.566c0 5.947 3.902 11.8 11.695 16.307 10.625 6.126 25.723 8.077 39.263 5.852V45.687z" fill="url(#R)" style="mix-blend-mode:multiply"/><path d="M68.757 39.858c-.368.226-.785.405-1.19.619v20.565c.381-.202.798-.392 1.19-.606 7.805-4.508 11.696-10.408 11.696-16.307V23.527c0 5.9-3.89 11.8-11.696 16.331z" fill="url(#S)" opacity=".78" style="mix-blend-mode:soft-light"/><path d="M79.168 29.356s-.143.309-.393.892c-.402.83-.871 1.625-1.404 2.379a25.649 25.649 0 01-7.245 6.827 30.151 30.151 0 01-2.796 1.618c-.488.261-.964.547-1.476.808l-1.618.714c-.547.25-1.094.512-1.665.738l-1.737.63a32.595 32.595 0 01-3.653 1.13c-1.19.38-2.534.63-3.843.904-1.309.274-2.641.464-3.986.666a69.455 69.455 0 01-8.221.619c-1.38 0-2.76-.072-4.129-.107-1.368-.036-2.736-.226-4.093-.345l-3.997-.595c-1.31-.274-2.606-.523-3.867-.82a38.503 38.503 0 01-3.665-1.048c-1.178-.404-2.38-.808-3.426-1.272-1.047-.464-2.154-.94-3.153-1.44l-2.844-1.558a30.22 30.22 0 01-4.545-3.342 26.171 26.171 0 01-2.998-3.152 18.721 18.721 0 01-1.547-2.379 43.328 43.328 0 01-.452-.868l.524.832c.524.757 1.097 1.48 1.713 2.165a29.256 29.256 0 007.746 5.947l2.831 1.404c.988.452 2.059.844 3.13 1.285 1.07.44 2.236.737 3.39 1.118 1.154.38 2.38.63 3.57.951 1.19.321 2.51.5 3.783.761l3.926.524c1.333.095 2.665.226 4.01.297 1.344.072 2.7.083 4.045 0a69.395 69.395 0 008.055-.5c1.32-.19 2.63-.32 3.902-.606 1.274-.286 2.547-.488 3.772-.833 1.226-.345 2.38-.642 3.57-1.034l1.725-.548c.559-.202 1.094-.44 1.63-.642l1.582-.642c.512-.226 1.011-.5 1.511-.738 1.011-.5 1.927-.94 2.796-1.475a27.197 27.197 0 007.46-6.28 19.28 19.28 0 001.559-2.284l.523-.701z" opacity=".4" fill="#FFF"/></g><path fill="#000" opacity=".1" style="mix-blend-mode:multiply" d="M406.461 295.577l17.68-10.253v3.271l-15.193 8.73zm-32.695-37.646l-4.07 1.939a1.701 1.701 0 00-.558 2.629l9.244 10.871s-4.033 13.524 6.532 20.625c10.565 7.101 7.888 4.877 7.888 4.877l6.604 12.025 2.058 8.838 9.602-3.652-11.732-17.925-12.278-17.294 2.38-2.225-11.898-21.136-3.772.428z"/><path d="M432.981 275.392a1.641 1.641 0 00-.273-.951l-26.723-36.945a1.654 1.654 0 00-2.106-.5l-29.233 15.535c-.524.282-.85.832-.844 1.427v3.997c0 .333.103.657.297.928l19.905 26.191.071.095 7.544 11.372a1.642 1.642 0 002.189.523l28.388-16.39c.5-.295.8-.837.785-1.416v-3.925.06z" fill="#515150"/><path d="M393.052 432.364s5.64 10.205-.868 13.952-14.087 4.425-23.606-2.379c-9.518-6.804-22.046-12.013-22.046-20.03 0-8.017 10.827-11.562 21.154-5.615 10.327 5.948 25.366 14.072 25.366 14.072z" fill="#12103D"/><path d="M480.454 317.19c-.215.19-26.461 20.577-46.533 1.688l-2.141-13.143-1.19-.714a99.724 99.724 0 01-7.924 5.091 120.432 120.432 0 01-13.433 6.625l19.905 15.701-27.638-12.656.214-.142c-1.904.678-3.82 1.344-5.782 1.95-7.734 14.214-.952 29.273-.952 29.273 30.065 23.277 51.16 24.693 73.54 10.003 17.561-11.562 11.934-43.677 11.934-43.677z" fill="#535A9A"/><path d="M134.184 150.667c-.215.19-26.461 20.577-46.533 1.689l-2.141-13.144-1.19-.713a99.724 99.724 0 01-7.924 5.09 120.432 120.432 0 01-13.433 6.626l19.905 15.7L55.23 153.26l.214-.143c-1.904.678-3.82 1.344-5.783 1.95-7.733 14.214-.951 29.273-.951 29.273 30.065 23.277 51.16 24.693 73.54 10.003 17.561-11.561 11.934-43.676 11.934-43.676z" fill="url(#T)" style="mix-blend-mode:multiply" transform="translate(346.27 166.523)"/><path d="M480.918 320.758l-4.45-.952c-5.95 3.568-17.704 9.123-29.638 6.185l-13.813 9.04a52.622 52.622 0 01-3.914-2.64l-27.639-12.656.214-.143c-1.404.5-2.808.975-4.235 1.451a95.622 95.622 0 0024.688 12.24 74.061 74.061 0 0115.383 7.374c7.52 4.627 22.13 9.361 43.178-2.629a74.368 74.368 0 00.226-17.27z" fill="#000" opacity=".1" style="mix-blend-mode:multiply"/><path d="M398.061 350.815v80.335s-13.242 8.255-26.175 0v-89.79c0-16.01 13.564-22.945 29.53-21.624l-3.355 31.08z" fill="#535A9A"/><path d="M51.791 184.292v80.336s-13.242 8.254-26.175 0v-89.792c0-16.01 13.563-22.944 29.53-21.624l-3.355 31.08z" fill="url(#U)" style="mix-blend-mode:multiply" transform="translate(346.27 166.523)"/><path d="M51.791 184.292v80.336s-13.242 8.254-26.175 0v-89.792c0-16.01 13.563-22.944 29.53-21.624l-3.355 31.08z" fill="url(#V)" style="mix-blend-mode:multiply" transform="translate(346.27 166.523)"/><path d="M394.004 281.232l-19.905-26.25a1.653 1.653 0 01.547-2.451l29.233-15.534a1.654 1.654 0 012.106.5l26.723 36.944a1.641 1.641 0 01-.512 2.378l-28.388 16.391a1.642 1.642 0 01-2.19-.523l-7.543-11.371-.07-.084z" fill="#5C5C5C"/><path d="M395.17 278.842l-17.442-23.004a1.439 1.439 0 01.476-2.141l25.616-13.608a1.452 1.452 0 011.844.429l23.415 32.376a1.45 1.45 0 01-.452 2.094l-24.867 14.344a1.44 1.44 0 01-1.927-.44l-6.603-9.98-.06-.07z" fill="#88D1D1"/><path d="M394.004 281.232l-19.905-26.25a1.653 1.653 0 01.547-2.451l29.233-15.534a1.654 1.654 0 012.106.5l26.723 36.944a1.641 1.641 0 01-.512 2.378l-28.388 16.391a1.642 1.642 0 01-2.19-.523l-7.543-11.371-.07-.084z" fill="#5C5C5C"/><path d="M395.17 278.842l-17.442-23.004a1.439 1.439 0 01.476-2.141l25.616-13.608a1.452 1.452 0 011.844.429l23.415 32.376a1.45 1.45 0 01-.452 2.094l-24.867 14.344a1.44 1.44 0 01-1.927-.44l-6.603-9.98-.06-.07z" fill="#8263C9"/><path d="M415.182 259.037a11.894 11.894 0 004.498 7.744 41.763 41.763 0 008.78 5.578l.892-3.723-14.17-9.599z" fill="#000" opacity=".1" style="mix-blend-mode:multiply"/><path d="M427.056 270.111s-7.21-4.127-11.1-9.635c-3.891-5.507 7.424 1.071 7.424 1.071l-6.58-9.087s13.968-.702 16.217 14.868l-5.96 2.783z" fill="#FDD4C0"/><path d="M432.981 275.392a1.594 1.594 0 01-.785 1.44l-28.388 16.39a1.642 1.642 0 01-2.19-.523l-7.543-11.372-.07-.095-19.906-26.25a1.714 1.714 0 01-.297-1.024v3.985c0 .333.103.657.297.928l19.905 26.203.071.095 7.544 11.372a1.642 1.642 0 002.189.523l28.388-16.39c.5-.295.8-.837.785-1.416v-3.925.06z" fill="#515150"/><path d="M473.898 226.292s2.023-1.19 8.959 6.815c7.829 9.088 13.492 55.131 2.808 94.573a6.054 6.054 0 01-1.987 3.057c-5.949 4.865-28.805 20.792-54.575 1.654l.119-42.392s-2.558-25.68-.298-32.591a19.746 19.746 0 018.805-11.455l36.169-19.661z" fill="#B43F62"/><path d="M127.628 59.769s2.022-1.19 8.959 6.815c7.829 9.088 13.504 51.944 2.784 94.49a5.947 5.947 0 01-2.01 3.176c-6.01 4.912-28.83 20.708-54.528 1.618l.119-42.392s-2.558-25.68-.298-32.591a19.746 19.746 0 018.804-11.454l36.17-19.662z" fill="url(#W)" style="mix-blend-mode:multiply" transform="translate(346.27 166.523)"/><path d="M127.628 59.769s2.022-1.19 8.959 6.815c7.829 9.088 13.504 51.944 2.784 94.49a5.947 5.947 0 01-2.01 3.176c-6.01 4.912-28.83 20.708-54.528 1.618l.119-42.392s-2.558-25.68-.298-32.591a19.746 19.746 0 018.804-11.454l36.17-19.662z" fill="url(#X)" style="mix-blend-mode:overlay" transform="translate(346.27 166.523)"/><path d="M482.786 331.463a45.663 45.663 0 01-24.117 4.222 13.711 13.711 0 01-12.171-16.176 146.56 146.56 0 001.962-26.228l-3.914.179-7.424 8.445-7.972 14.273v16.284a51.817 51.817 0 006.223 3.985l.583.356c21.773 11.371 40.417-.368 46.83-5.34z" fill="#9B3454"/><path d="M392.398 269.611s-2.082.548-.726 8.564l2.38 4.497 2.058-1.095-3.712-11.966z" fill="#000" opacity=".1" style="mix-blend-mode:multiply"/><path d="M445.843 293.4c-8.15 3.402-15.598 2.82-20.226.655a278.56 278.56 0 00.547 12.893 1.19 1.19 0 01-2.023 1.059L401 291.687s.547-12.56-5.794-20.22c-6.342-7.66-1.107 9.86-1.107 9.86l-8.566-11.24a1.963 1.963 0 00-3.248.19c-2.69 4.592-6.092 15.463 11.802 26.49 0 0 11.577 21.184 31.077 33.792 18.418 11.942 21.131-37.159 20.679-37.159z" fill="#FDD4C0"/><path d="M445.843 293.4a31.642 31.642 0 01-4.533 1.511c-1.404 13.203-6.377 38.847-20.286 29.855-10.363-6.708-18.49-15.831-23.796-22.909 4.676 7.054 14.385 19.936 27.925 28.69 18.43 11.954 21.142-37.147 20.69-37.147z" fill="#FBC4AA"/><path d="M463.76 233.262l-.737-1.868-14.943 2.95s1.19 3.569-4.498 8.445c10.113.571 16.276-3.128 19.132-5.495a3.568 3.568 0 001.047-4.032z" fill="#FDD4C0"/><path d="M457.586 236.307a23.38 23.38 0 006.092-3.295l-.655-1.653-14.943 2.95a5.768 5.768 0 01-.845 4.115c3.53-.239 7.011-.95 10.351-2.117z" fill="#FBC4AA"/><path d="M427.853 191.845c1.987-12.275 11.898-21.969 24.593-21.969a24.775 24.775 0 0117.529 7.266 24.76 24.76 0 017.242 17.534v14.155a24.574 24.574 0 01-15.966 23.277 40.891 40.891 0 01-14.944 2.212 7.675 7.675 0 01-4.521-1.641c-11.16-8.909-16.99-22.23-13.933-40.834z" fill="#FDD4C0"/><path d="M452.458 166.665c-7.864 0-16.407 3.568-20.226 10.086 0 0-10.708 5.507-4.14 18.389 0 0 .404-1.606 3.08-3.152a10.073 10.073 0 003.273 10.384 14.983 14.983 0 0011.54 2.83s7.306 8.089 7.9 19.091a8.492 8.492 0 0011.351 7.446c8.817-3.318 18.977-11.133 18.977-28.665-.06-30.997-21.808-36.41-31.755-36.41z" fill="#5D463A"/><path d="M106.188.142c-7.864 0-16.407 3.568-20.226 10.086 0 0-10.708 5.508-4.14 18.39 0 0 .404-1.606 3.08-3.153a10.073 10.073 0 003.273 10.384 14.983 14.983 0 0011.54 2.831s7.306 8.088 7.9 19.09a8.492 8.492 0 0011.351 7.447c8.816-3.319 18.977-11.134 18.977-28.666C137.883 5.554 116.135.14 106.188.14z" fill="url(#Y)" style="mix-blend-mode:multiply" transform="translate(346.27 166.523)"/><path d="M443.582 209.758a5.638 5.638 0 009.623 4.003 5.637 5.637 0 00-3.983-9.629 5.639 5.639 0 00-5.64 5.626z" fill="#FDD4C0"/><path d="M435.052 250.997c-9.162-.548-11.256 24.859-10.97 42.26 4.45 2.796 15.277 3.807 24.378 0 1.012-10.122.25-19.435.25-24.43 0-15.57-9.637-17.593-13.658-17.83z" fill="#B43F62"/><path d="M88.781 84.474c-9.16-.547-11.255 24.86-10.97 42.26 4.45 2.796 15.277 3.807 24.38 0 1.01-10.121.25-19.435.25-24.43 0-15.57-9.638-17.592-13.66-17.83z" fill="url(#Z)" style="mix-blend-mode:multiply" transform="translate(346.27 166.523)"/><path d="M382.237 270.278c-2.689 4.59-6.092 15.462 11.803 26.489-15.777-10.313-11.803-26.49-11.803-26.49z" fill="#FBC4AA"/><path fill="#FFF" opacity=".3" style="mix-blend-mode:overlay" d="M396.67 243.884l8.375 44.711 4.2-2.426-8.626-44.379zm6.281-3.343l8.448 44.39 2.07-1.2-9.65-43.642z"/><path d="M367.984 189.454c.107-.44.19-.892.261-1.344 0 0-18.049-3.877-31.517-3.294-6.675.285-13.278.713-18.24 1.07a7.937 7.937 0 01-8.494-7.874l-.143-28.083-1.392 8.005s-2.13 20.827-3.224 25.668a14.888 14.888 0 00.654 7.375 196.523 196.523 0 0162.095-1.523zm-1.488 42.737H353.23a1.345 1.345 0 01-.975-.404l-20.536-20.946a1.356 1.356 0 01.845-2.308l11.041-1.058 22.891 24.716z" fill="#000" opacity=".1" style="mix-blend-mode:multiply"/><path d="M385.914 218.62l-22.202-22.909a1.809 1.809 0 00-1.927-.44l-17.026 6.209c-.64.22-1.1.781-1.19 1.45v4.14c-.013.47.158.927.476 1.273l21.262 23.206c.493.548 1.27.74 1.963.488l18.001-6.578a1.796 1.796 0 001.19-1.784v-3.794a1.796 1.796 0 00-.547-1.261z" fill="#5C5C5C"/><path d="M344.76 201.48l16.977-6.21a1.809 1.809 0 011.928.441l22.201 22.909a1.82 1.82 0 01-.69 2.961l-18.001 6.578c-.693.253-1.47.06-1.964-.488l-21.213-23.265a1.808 1.808 0 01.761-2.926z" fill="#515150"/><path d="M347.77 202.098l13.218-4.757a1.452 1.452 0 011.499.344l19.881 20.221c1.523 1.534.654 1.796-.523 2.272l-13.992 5.043a1.428 1.428 0 01-1.523-.369L347.21 204.3c-1.118-1.047-1.32-1.63.56-2.2z" fill="#8263C9"/><path d="M385.224 221.581l-18.002 6.578c-.693.253-1.47.06-1.963-.488l-21.214-23.265a1.736 1.736 0 01-.44-1.475v4.14c-.013.47.158.926.476 1.272l21.226 23.206c.493.548 1.27.74 1.963.488l18.001-6.578a1.796 1.796 0 001.19-1.784v-3.794a1.808 1.808 0 01-1.237 1.7z" fill="#5C5C5C"/><path fill="#FFF" opacity=".3" style="mix-blend-mode:overlay" d="M374.325 209.746l-21.94-9.313-1.653.619 25.509 10.657zm5.509 5.627l-31.886-13.334-.179.06c-1.88.57-1.677 1.189-.559 2.247l3.07 3.295 30.934 12.81.607-.225c1.19-.476 2.046-.738.523-2.272l-2.51-2.581z"/><g opacity=".8"><path d="M161.854 176.834l21.654-12.489a1.07 1.07 0 00.535-.928v-22.266a1.07 1.07 0 00-1.606-.928l-21.19 12.228a2.01 2.01 0 00-1 1.736v21.672a1.07 1.07 0 001.607.975z" fill="#FFF"/><path d="M168.767 157.803c0 2.13 1.499 2.986 3.343 1.927a7.41 7.41 0 003.343-5.792c0-2.13-1.499-2.998-3.343-1.927a7.374 7.374 0 00-3.343 5.792zm3.343 1.951c2.26-1.308 4.105-.25 4.105 2.379l-8.21 4.758a9.075 9.075 0 014.105-7.137z" fill="#8263C9"/><path d="M190.873 160.182l21.642-12.49a1.07 1.07 0 00.535-.927V124.5a1.07 1.07 0 00-1.606-.928l-21.178 12.227a1.998 1.998 0 00-1.047 1.785v21.671a1.07 1.07 0 001.654.928z" fill="#FFF"/><g fill="#8263C9"><path d="M197.81 141.615c0 2.129 1.498 2.997 3.342 1.927a7.374 7.374 0 003.344-5.78c0-2.142-1.5-2.998-3.344-1.94a7.41 7.41 0 00-3.343 5.793z"/><path d="M201.117 143.53c2.272-1.309 4.105-.25 4.105 2.379l-8.21 4.758a9.099 9.099 0 014.105-7.137z"/></g><path d="M223.116 90.278l21.19-11.763c.426-.246.693-.698.702-1.19V26a1.392 1.392 0 00-2.094-1.189l-20.572 11.407a2.617 2.617 0 00-1.308 2.26v50.599a1.392 1.392 0 002.082 1.201z" fill="#8263C9"/><path d="M226.59 51.704a.63.63 0 00.286-.07l12.85-7.423a.57.57 0 00-.56-.987l-12.862 7.422a.57.57 0 00.286 1.058zm0 5.71a.63.63 0 00.286-.072l12.85-7.422a.57.57 0 00-.13-1.042.547.547 0 00-.43.067l-12.862 7.41a.57.57 0 00.286 1.059zm0 5.709a.63.63 0 00.286-.071l12.85-7.422a.57.57 0 00-.13-1.042.547.547 0 00-.43.066l-12.862 7.422a.559.559 0 00-.202.762c.103.173.287.28.488.285zm0 5.71a.63.63 0 00.286-.072l12.85-7.422a.57.57 0 00-.13-1.042.547.547 0 00-.43.067l-12.862 7.422a.559.559 0 00-.202.761c.103.173.287.28.488.286zm0 5.709a.63.63 0 00.286-.071l12.85-7.423a.562.562 0 10-.56-.975l-12.862 7.422a.559.559 0 00-.202.761.585.585 0 00.488.286zM118.106 200.623l28.043-16.188c.433-.239.703-.695.702-1.19V162.93a1.392 1.392 0 00-2.082-1.19l-27.448 15.82a2.617 2.617 0 00-1.297 2.26v19.614a1.392 1.392 0 002.082 1.19z" fill="#FFF"/><path d="M130.991 188.729c.119.012.238.012.357 0 .368-.095.681-.336.869-.666l9.732-16.855a1.415 1.415 0 00-2.38-1.415l-9.018 15.63-4.76-2.867a1.428 1.428 0 00-1.939.487 1.403 1.403 0 00.488 1.927l5.95 3.569c.213.122.455.188.701.19z" fill="#8263C9"/><path d="M119.426 165.737l91.364-52.728a4.52 4.52 0 002.225-3.973V15.33a4.532 4.532 0 00-6.794-3.925l-89.353 51.598a8.492 8.492 0 00-4.235 7.351v91.457a4.532 4.532 0 006.793 3.925z" fill="#623BBB"/><path d="M117.463 161.253a2.093 2.093 0 01-1.059-1.832V70.07a3.89 3.89 0 011.928-3.355l88.115-50.849a1.833 1.833 0 011.88 0c.59.33.955.954.952 1.63v90.35a2.962 2.962 0 01-1.476 2.546l-88.222 50.86a2.105 2.105 0 01-2.118 0zm89.829-143.924l-88.044 50.85a2.177 2.177 0 00-1.095 1.89v89.352a.416.416 0 00.215.369.405.405 0 00.428 0l88.222-50.92c.384-.228.623-.637.63-1.083V17.448a.19.19 0 00-.094-.166h-.108l-.154.047z" fill="#FFF"/><path d="M135.298 102.767c.3.002.576-.157.726-.416a.832.832 0 00-.31-1.19l-4.306-2.485 4.663-8.065a.844.844 0 10-1.463-.844l-5.08 8.79a.868.868 0 00-.084.642.82.82 0 00.393.512l5.033 2.914a.916.916 0 00.428.142zm55.111-31.889a.869.869 0 00.737-.416l5.033-8.73a.831.831 0 00.083-.63.88.88 0 00-.392-.524l-5.104-2.926a.845.845 0 00-.845 1.463l4.343 2.51-4.617 7.993a.868.868 0 00.31 1.189c.142.06.297.085.452.071zm-8.459 5.162c0 10.301-7.234 22.826-16.158 27.976-8.923 5.15-16.157.976-16.157-9.325 0-10.3 7.234-22.825 16.157-27.976 8.924-5.15 16.157-.975 16.157 9.326z" fill="#FFF"/></g><path d="M216.203 3.924c0 1.273.904 1.796 1.999 1.19a4.4 4.4 0 001.951-3.497c0-1.273-.892-1.784-1.999-1.19a4.448 4.448 0 00-1.95 3.497zm-93.766 41.238c0 1.273.904 1.785 1.998 1.19a4.425 4.425 0 002-3.461c0-1.273-.893-1.796-2-1.19a4.436 4.436 0 00-1.998 3.461zm107.235 62.208c0 1.285.892 1.797 1.998 1.19a4.389 4.389 0 002-3.461c0-1.273-.893-1.784-2-1.19a4.425 4.425 0 00-1.998 3.462zM75.107 127.127c0 .892.619 1.261 1.404.81a3.092 3.092 0 001.404-2.38c0-.904-.63-1.26-1.404-.82a3.104 3.104 0 00-1.404 2.39zm143.69-115.221c0 .903.63 1.26 1.404.82a3.116 3.116 0 001.416-2.414c0-.904-.63-1.261-1.416-.81a3.092 3.092 0 00-1.404 2.404zm-117.515 62.85c0 .892.63 1.26 1.404.809a3.08 3.08 0 001.416-2.38c0-.891-.63-1.189-1.416-.808a3.128 3.128 0 00-1.404 2.379zm70.435 114.318c0 .892.63 1.26 1.416.809a3.092 3.092 0 001.404-2.439c0-.892-.63-1.19-1.404-.809a3.116 3.116 0 00-1.416 2.439zm-7.341-3.009c0 .892.63 1.26 1.416.808a3.116 3.116 0 001.404-2.438c0-.892-.63-1.26-1.404-.809a3.092 3.092 0 00-1.416 2.439zm50.424-31.771c0 .892.63 1.261 1.403.81a3.092 3.092 0 001.416-2.38c0-.892-.63-1.26-1.416-.809a3.116 3.116 0 00-1.404 2.38zM115 53.31c0 .892.631 1.19 1.404.809a3.128 3.128 0 001.404-2.379c0-.892-.63-1.26-1.404-.809a3.092 3.092 0 00-1.404 2.38zm-25.104 82.87c0 .903.63 1.26 1.404.808a3.069 3.069 0 001.416-2.379c0-.904-.63-1.26-1.416-.82a3.128 3.128 0 00-1.404 2.39z" fill="#FFF"/><g opacity=".8"><path d="M476.991 83.094l-42.677-24.61a2.093 2.093 0 01-1.059-1.831V12.917a2.117 2.117 0 013.177-1.832l41.702 24.074a3.949 3.949 0 011.986 3.426v42.677a2.117 2.117 0 01-3.129 1.832z" fill="#8263C9"/><path d="M477.42 81.131a.928.928 0 01-.5-.13l-41.166-23.79a1.392 1.392 0 01-.679-1.189V13.88a.88.88 0 011.321-.761l41.107 23.777c.56.318.906.913.904 1.558v41.69a.987.987 0 01-.5.857.916.916 0 01-.487.13zM435.956 13.88a.083.083 0 000 .083v42.095c0 .205.109.395.285.5l41.167 23.788a.226.226 0 00.202 0 .202.202 0 00.107-.178v-41.63a1.023 1.023 0 00-.512-.88L436.003 13.88h-.047z" fill="#FFF"/><path d="M469.59 53.715a.393.393 0 01-.201-.738l2.01-1.19-2.165-3.77a.38.38 0 01.143-.535.393.393 0 01.535.143l2.38 4.103a.404.404 0 01-.143.536l-2.38 1.355a.357.357 0 01-.178.096zm-25.698-14.857a.38.38 0 01-.345-.202l-2.38-4.068a.44.44 0 010-.297.369.369 0 01.178-.238l2.38-1.368a.393.393 0 01.393.678l-2.035 1.19 2.154 3.723a.392.392 0 01-.143.535.393.393 0 01-.202.047zm3.926 2.379a16.651 16.651 0 007.543 13.084c4.164 2.38 7.543.452 7.543-4.353a16.651 16.651 0 00-7.543-13.084c-4.164-2.403-7.543-.404-7.543 4.353z" fill="#FFF"/><path d="M500.835 162.323l-42.63-24.61a2.117 2.117 0 01-1.06-1.831V92.146a2.117 2.117 0 013.177-1.832l41.702 24.074a3.937 3.937 0 011.975 3.426v42.677a2.105 2.105 0 01-3.164 1.832z" fill="#8263C9"/><path d="M501.25 160.36a1.035 1.035 0 01-.487-.13l-41.166-23.79a1.368 1.368 0 01-.69-1.189V93.157a.88.88 0 011.32-.773l41.107 23.789c.56.325.904.923.904 1.57v41.63a.975.975 0 01-.487.857 1.083 1.083 0 01-.5.13zm-41.463-67.298a.083.083 0 000 .083v42.118a.595.595 0 00.298.512l41.166 23.789a.155.155 0 00.19 0 .167.167 0 00.107-.167v-41.63a1 1 0 00-.511-.88l-41.107-23.79-.143-.035z" fill="#FFF"/><path d="M493.422 132.944a.393.393 0 01-.19-.738l1.999-1.19-2.166-3.758a.415.415 0 11.738-.38l2.38 4.103a.369.369 0 01-.143.535l-2.38 1.356a.405.405 0 01-.238.072zm-25.699-14.88a.38.38 0 01-.345-.202l-2.38-4.068a.369.369 0 01.143-.536l2.38-1.367a.393.393 0 11.392.678l-2.022 1.189 2.141 3.723a.38.38 0 01-.143.535.393.393 0 01-.166.048zm3.938 2.402a16.651 16.651 0 007.531 13.084c4.165 2.38 7.544.452 7.544-4.353a16.651 16.651 0 00-7.544-13.084c-4.164-2.403-7.53-.452-7.53 4.353z" fill="#FFF"/><path d="M540.204 119.658l-42.63-24.61a2.117 2.117 0 01-1.058-1.832V49.48a2.117 2.117 0 013.176-1.832l41.702 24.063a3.973 3.973 0 011.975 3.437v42.678a2.105 2.105 0 01-3.165 1.832z" fill="#8263C9"/><path d="M540.597 117.695a1.035 1.035 0 01-.488-.13l-41.166-23.79a1.368 1.368 0 01-.69-1.19V50.48a.88.88 0 011.32-.76l41.107 23.788c.56.326.904.923.905 1.57v41.63a.975.975 0 01-.988.988zm-41.464-67.299v42.201a.595.595 0 00.298.512l41.166 23.79c.06.041.141.041.202 0a.178.178 0 00.095-.167V75.1a1 1 0 00-.511-.88l-41.107-23.79-.143-.035z" fill="#FFF"/><path d="M532.78 90.278a.393.393 0 01-.202-.737l2.01-1.19-2.177-3.758a.392.392 0 01.143-.536.38.38 0 01.535.143l2.38 4.104a.416.416 0 010 .297.404.404 0 01-.178.238l-2.38 1.356a.393.393 0 01-.13.083zm-25.711-14.892a.393.393 0 01-.345-.19l-2.38-4.068a.404.404 0 01.143-.535l2.38-1.368a.393.393 0 01.392.678l-2.022 1.19 2.153 3.734a.404.404 0 01-.143.536.417.417 0 01-.178.023zm3.938 2.415a16.651 16.651 0 007.543 13.084c4.165 2.379 7.532.464 7.532-4.342a16.651 16.651 0 00-7.532-13.084c-4.164-2.414-7.543-.463-7.543 4.342z" fill="#FFF"/></g><path d="M424.962 14.677c0 1.273-.892 1.784-1.999 1.19a4.425 4.425 0 01-1.998-3.462c0-1.273.892-1.796 1.998-1.19a4.4 4.4 0 012 3.462zm66.14 7.232c0 1.272-.904 1.784-1.999 1.19a4.425 4.425 0 01-1.999-3.462c0-1.273.893-1.796 2-1.19a4.436 4.436 0 011.998 3.462zm-52.588 71.129c0 1.273-.893 1.784-1.999 1.19a4.448 4.448 0 01-1.999-3.462c0-1.273.904-1.796 1.999-1.19a4.4 4.4 0 011.999 3.462zm115.016 14c0 .892-.63 1.26-1.404.808a3.116 3.116 0 01-1.404-2.438c0-.892.63-1.26 1.404-.809a3.116 3.116 0 011.404 2.439zm-131.114-84.38c0 .892-.619 1.26-1.404.809a3.116 3.116 0 01-1.451-2.45c0-.892.63-1.261 1.404-.81a3.08 3.08 0 011.451 2.451zM542.203 55.38c0 .904-.63 1.26-1.404.82a3.128 3.128 0 01-1.404-2.378c0-.892.63-1.261 1.404-.81a3.092 3.092 0 011.404 2.368zM528.7 146.313c0 .904-.62 1.261-1.405.82a3.128 3.128 0 01-1.368-2.414c0-.892.63-1.26 1.404-.808a3.057 3.057 0 011.368 2.402zm7.34-3.009c0 .892-.63 1.26-1.404.809a3.092 3.092 0 01-1.404-2.38c0-.903.63-1.26 1.404-.82a3.128 3.128 0 011.404 2.39zm-93.862-61.352c0 .892-.63 1.26-1.404.809a3.128 3.128 0 01-1.404-2.379c0-.892.631-1.26 1.404-.809a3.092 3.092 0 011.404 2.38zm56.384-51.907c0 .904-.63 1.26-1.404.82a3.128 3.128 0 01-1.404-2.379c0-.904.63-1.26 1.404-.808a3.092 3.092 0 011.404 2.367zm64.95 102.887c0 .892-.63 1.26-1.404.809a3.08 3.08 0 01-1.404-2.439c0-.892.619-1.26 1.404-.808a3.116 3.116 0 011.404 2.438z" fill="#FFF"/></g><path d="M164.912 96.788c-1.635.845-3.211 1.267-4.727 1.266v-4.959c1.843.186 3.888-.183 5.5-1.114.804-.464 1.699-1.114 1.82-2.11.136-1.125-.858-1.106-1.712-1.09-1.786.035-4.261.668-5.233-1.361-.805-1.684-.438-4.122.208-5.788.801-2.065 2.366-3.719 4.144-4.992v-2.046l2.319-1.338v2.016c1.486-.748 2.983-1.125 4.492-1.13l-1.333 5.026c-1.561-.034-2.969.31-4.223 1.035-.705.407-2.228 1.589-1.508 2.6.481.676 2.206.298 2.863.217 1.22-.129 2.813-.154 3.672.89.822.997.781 2.59.653 3.798-.33 3.117-2.13 5.811-4.616 7.652v2.883l-2.319 1.338v-2.793z" fill="#8263C9" fill-rule="nonzero"/></g></svg>