<svg width="694" height="497" xmlns="http://www.w3.org/2000/svg"><g fill="none"><path d="M236.776 386.332l-56.982 66.797c-7.485 8.838-6.804 22.096 1.87 29.914 6.464 5.949 15.99 7.479 23.985 3.57 29.086-13.938 95.765-46.401 94.404-48.611-1.02-1.7-15.99-27.534-28.066-48.44-7.655-12.918-25.515-14.617-35.21-3.23z" fill="#ECECEC"/><path d="M339.516 449.56L209.73 491.88c-11.907 3.91-24.664-2.55-28.577-14.447-3.912-11.897 2.552-24.645 14.459-28.554l129.785-42.322c11.906-3.909 24.664 2.55 28.576 14.447 3.912 11.898-2.551 24.646-14.458 28.555z" fill="#FCC49E"/><path d="M473.383 386.332l56.983 66.797c7.484 8.838 6.804 22.096-1.871 29.914-6.464 5.949-15.99 7.479-23.984 3.57-29.087-13.938-95.765-46.401-94.405-48.611 1.021-1.7 15.99-27.534 28.067-48.44 7.484-12.918 25.514-14.617 35.21-3.23z" fill="#ECECEC"/><path d="M370.644 449.56l129.784 42.321c11.907 3.91 24.665-2.55 28.577-14.447 3.912-11.897-2.552-24.645-14.458-28.554l-129.785-42.322c-11.907-3.909-24.664 2.55-28.577 14.447-4.082 11.898 2.552 24.646 14.459 28.555z" fill="#FCC49E"/><path d="M442.255 396.87l-165.335-3.399v-21.246c0-34.673 35.21-66.966 69.91-66.966h26.025c30.788 0 69.23 32.633 69.23 63.397v28.214h.17z" fill="#ECECEC"/><path d="M371.324 266.167H347c-4.933 0-8.845 3.909-8.845 8.838v38.072c0 11.558 9.355 21.076 21.092 21.076 11.567 0 21.092-9.348 21.092-21.076v-38.072c-.17-4.93-4.082-8.838-9.015-8.838z" fill="#FCC49E"/><path d="M338.155 305.259s1.7 12.407 21.092 12.407c19.391 0 21.092-12.407 21.092-12.407h-42.184zm-38.272-99.6c-8.675 0-15.65 7.308-15.65 16.316 0 9.009 6.975 16.317 15.65 16.317s15.649-7.308 15.649-16.317c.17-9.008-6.974-16.316-15.65-16.316zm118.728 0c-8.675 0-15.649 7.308-15.649 16.316 0 9.009 6.974 16.317 15.65 16.317 8.674 0 15.648-7.308 15.648-16.317.17-9.008-6.974-16.316-15.649-16.316z" fill="#F9AD80"/><path d="M354.314 309.338c1.531.17 3.232.34 4.763.34 4.933 0 9.866-.68 14.458-1.87v-.17c25.685-6.798 44.736-30.934 44.736-59.658v-72.065c0-33.993-26.535-28.555-59.194-28.555-32.659 0-59.194-5.438-59.194 28.555v72.065c0 32.294 23.984 58.808 54.431 61.358z" fill="#FCC49E"/><path d="M406.534 224.355V243.9h-21.092s-5.273-14.107-26.365-14.107-26.365 14.107-26.365 14.107H311.62v-19.546c0-7.649-7.145-10.198-11.907-11.048v34.673c0 32.294 23.984 58.808 54.431 61.358l-.17.17c1.701.17 3.232.17 4.933.17 1.7 0 3.232-.17 4.933-.17l.17-.17c30.447-2.55 54.431-29.064 54.431-61.358v-34.673c-4.763.85-11.907 3.4-11.907 11.048z" fill="#1D1D1B"/><path d="M386.463 205.659c0 2.38-1.871 4.249-4.083 4.249-2.21 0-4.082-1.87-4.082-4.25 0-2.379 1.871-4.248 4.082-4.248 2.212 0 4.083 1.87 4.083 4.249zm3.742-6.799h-14.458c-.85 0-1.531-.68-1.531-1.53v-3.739c0-.85.68-1.53 1.53-1.53h14.459c.85 0 1.53.68 1.53 1.53v3.74c0 .85-.68 1.53-1.53 1.53z" fill="#010101"/><path d="M337.475 253.929h40.993s-3.572 13.937-20.582 13.937c-16.84 0-20.411-13.937-20.411-13.937z" fill="#E6E6E5"/><path d="M364.01 298.12c-1.531.17-3.232.34-4.763.34-1.7 0-3.232-.17-4.933-.17l.17-.17c-30.447-2.55-54.431-29.064-54.431-61.358v11.388c0 32.294 23.984 58.808 54.431 61.358l-.17.17c1.701.17 3.232.17 4.933.17 1.701 0 3.232-.17 4.933-.17l-.17-.34c30.447-2.55 54.431-29.064 54.431-61.358v-11.388c0 32.464-23.984 58.809-54.431 61.528z" fill="#131312"/><path d="M337.815 205.659c0 2.38-1.871 4.249-4.083 4.249-2.21 0-4.082-1.87-4.082-4.25 0-2.379 1.871-4.248 4.082-4.248 2.212 0 4.083 1.87 4.083 4.249zm3.742-6.799h-14.458c-.851 0-1.531-.68-1.531-1.53v-3.739c0-.85.68-1.53 1.53-1.53h14.459c.85 0 1.53.68 1.53 1.53v3.74c0 .85-.68 1.53-1.53 1.53z" fill="#010101"/><path d="M402.792 123.565c-16.16-2.21-41.504-2.55-59.874 12.578-.51.34-.85.68-1.191 1.19h-14.628c-14.97 0-27.216 10.707-27.216 23.795v81.583c2.721 0 5.103-2.38 5.103-5.269v-52.52s.85-16.656 15.989-16.656h74.163c16.16 0 18.03 14.617 18.37 16.487v52.86c0 2.889 2.212 5.268 5.103 5.268v-80.054l.17-20.566c0-9.518-6.804-17.336-15.989-18.696z" fill="#1D1D1B"/><path d="M364.86 219.256h-13.948c-2.891 0-5.273 2.38-5.273 5.269 0 2.89 2.382 5.269 5.273 5.269h13.948c2.892 0 5.273-2.38 5.273-5.27 0-2.889-2.381-5.268-5.273-5.268z" fill="#F9AD80"/><path d="M492.094 493.41H223.169c-5.444 0-9.866-4.418-9.866-9.857 0-5.439 4.422-9.858 9.866-9.858h268.925c5.443 0 9.865 4.419 9.865 9.858 0 5.439-4.422 9.858-9.865 9.858z" fill="#272626"/><path d="M463.007 493.41h-207.52a15.602 15.602 0 01-15.649-15.636V361.517a15.602 15.602 0 0115.65-15.636h207.519a15.602 15.602 0 0115.649 15.636v116.257c-.17 8.668-7.144 15.637-15.65 15.637z" fill="#333232"/><path d="M357.546 437.832c-10.036 0-18.2-8.158-18.2-18.186s8.164-18.187 18.2-18.187 18.2 8.159 18.2 18.187-8.164 18.186-18.2 18.186zm0-32.973c-8.165 0-14.969 6.628-14.969 14.957 0 8.158 6.634 14.957 14.97 14.957 8.164 0 14.968-6.629 14.968-14.957 0-8.329-6.634-14.957-14.969-14.957z" fill="#DCDBDB"/><path d="M593.982 496.64H139.31c-1.7 0-3.232-1.36-3.232-3.23 0-1.699 1.361-3.228 3.232-3.228h454.672c1.701 0 3.232 1.36 3.232 3.229-.17 1.87-1.53 3.23-3.232 3.23zm-470.661 0h-50.86c-1.7 0-3.231-1.36-3.231-3.23 0-1.699 1.36-3.228 3.232-3.228h50.86c1.7 0 3.23 1.36 3.23 3.229 0 1.87-1.53 3.23-3.23 3.23z" fill="#161616"/><path d="M662.192 496.64h-50.86c-1.7 0-3.232-1.36-3.232-3.23 0-1.699 1.361-3.228 3.232-3.228h50.86c1.7 0 3.232 1.36 3.232 3.229 0 1.87-1.361 3.23-3.232 3.23zm28.576 0h-10.886c-1.701 0-3.232-1.36-3.232-3.23 0-1.699 1.36-3.228 3.232-3.228h10.886c1.701 0 3.232 1.36 3.232 3.229 0 1.87-1.53 3.23-3.232 3.23zm-636.847 0h-17.35c-1.7 0-3.232-1.36-3.232-3.23 0-1.699 1.361-3.228 3.232-3.228h17.35c1.701 0 3.232 1.36 3.232 3.229 0 1.87-1.36 3.23-3.232 3.23zm-45.586 0H3.912c-1.7 0-3.232-1.36-3.232-3.23 0-1.699 1.361-3.228 3.232-3.228h4.423c1.7 0 3.232 1.36 3.232 3.229 0 1.87-1.361 3.23-3.232 3.23z" fill="#623BBB"/><path d="M198.675 116.427H174.18c-26.025 0-46.947 21.075-46.947 46.91 0 25.835 20.922 46.91 46.777 46.91a2348.963 2348.963 0 0112.417 11.728l12.248-11.727c26.025 0 46.947-21.076 46.947-46.91 0-26.006-21.093-46.911-46.947-46.911z" fill="#ECECEC"/><ellipse fill="#ECECEC" transform="rotate(-76.579 85.386 284.918)" cx="85.386" cy="284.918" rx="39.973" ry="39.942"/><ellipse fill="#623BBB" cx="146.965" cy="396.87" rx="10.206" ry="10.198"/><ellipse fill="#623BBB" cx="550.777" cy="11.048" rx="10.546" ry="10.538"/><path d="M513.186 323.785c-.51 0-.85-.17-1.19-.51l-5.614-5.949h-43.545c-19.562 0-35.38-15.807-35.38-35.353s15.818-35.353 35.38-35.353h60.895c19.561 0 35.38 15.807 35.38 35.353s-15.819 35.353-35.38 35.353h-4.593l-4.763 5.78c-.17.509-.68.679-1.19.679.17 0 0 0 0 0zm-50.35-73.935c-17.69 0-32.148 14.447-32.148 32.123 0 17.677 14.459 32.124 32.149 32.124h44.225c.51 0 .85.17 1.19.51l4.934 5.099 4.082-4.93c.34-.34.68-.51 1.19-.51h5.274c17.69 0 32.148-14.446 32.148-32.123 0-17.676-14.458-32.123-32.148-32.123h-60.895v-.17z" fill="#ECF6FD"/><path d="M216.195 311.717H172.65c-10.717 0-19.392 8.669-19.392 19.377 0 10.707 8.675 19.376 19.392 19.376h43.545c10.716 0 19.39-8.669 19.39-19.376 0-10.708-8.674-19.377-19.39-19.377z" fill="#623BBB"/><path fill="#42BDE0" d="M183.876 349.28l-5.103 6.968-4.423-6.968z"/><path d="M522.371 91.782h-40.823c-19.222 0-34.7 15.466-34.7 34.673 0 19.206 15.478 34.673 34.7 34.673h4.252l8.845 12.407 7.995-12.407h19.731c19.221 0 34.7-15.467 34.7-34.673 0-19.207-15.479-34.673-34.7-34.673z" fill="#ECECEC"/><g fill="#623BBB"><path d="M306.517 97.22c-.68 0-1.191-.17-1.701-.68l-13.268-13.257c-1.02-1.02-1.02-2.38 0-3.399 1.02-1.02 2.381-1.02 3.402 0l13.268 13.257c1.02 1.02 1.02 2.38 0 3.4-.51.51-1.02.68-1.701.68z"/><path d="M293.249 97.22c-.68 0-1.19-.17-1.701-.68-1.02-1.02-1.02-2.379 0-3.399l13.268-13.257c1.02-1.02 2.381-1.02 3.402 0 1.02 1.02 1.02 2.38 0 3.4L294.95 96.54c-.34.51-1.02.68-1.701.68z"/></g><path d="M212.282 334.323H189.66c-1.87 0-3.232-1.53-3.232-3.23 0-1.87 1.531-3.229 3.232-3.229h22.623c1.871 0 3.232 1.53 3.232 3.23s-1.53 3.229-3.232 3.229z" fill="#FFF"/><path d="M529.005 273.645h-69.57c-1.871 0-3.572-1.53-3.572-3.57 0-2.039 1.53-3.569 3.572-3.569h69.57c1.871 0 3.572 1.53 3.572 3.57s-1.53 3.57-3.572 3.57zm-33.339 12.068h-36.061c-1.871 0-3.572-1.53-3.572-3.57 0-1.87 1.53-3.569 3.572-3.569h36.06c1.872 0 3.573 1.53 3.573 3.57 0 1.869-1.701 3.569-3.572 3.569zm20.071 12.067h-56.132c-1.871 0-3.572-1.53-3.572-3.57 0-1.869 1.53-3.568 3.572-3.568h56.132c1.871 0 3.572 1.53 3.572 3.569-.17 1.87-1.7 3.57-3.572 3.57z" fill="#623BBB"/><path d="M179.113 334.323h-3.912c-1.871 0-3.232-1.53-3.232-3.23 0-1.87 1.531-3.229 3.232-3.229h3.912c1.871 0 3.232 1.53 3.232 3.23s-1.36 3.229-3.232 3.229z" fill="#FFF"/><path d="M205.819 158.578c0-2.55-1.871-4.589-4.423-4.929h-2.041v-6.289c0-1.36 0-2.889-.34-4.249-.51-2.89-2.212-5.609-4.423-7.478-1.36-1.02-2.721-1.87-4.422-2.38-1.361-.51-3.062-.68-4.423-.68a14.586 14.586 0 00-7.314 2.55 13.1 13.1 0 00-3.062 3.06c-.68 1.019-1.36 2.209-1.7 3.399-.511 1.53-.681 3.229-.681 4.759v7.138h-1.361c-1.701 0-3.232.85-4.253 2.38-1.02 1.53-.68 3.23-.68 4.929v20.396c0 1.36.34 2.55 1.36 3.569a5.279 5.279 0 003.743 1.53h28.576c.68 0 1.361 0 2.042-.17 2.04-.68 3.402-2.55 3.402-4.76v-22.774zm-15.48 11.388c0 1.36-.85 2.72-2.04 3.4v3.229c0 1.02-.851 1.87-1.872 1.87-1.02 0-1.87-.85-1.87-1.87v-3.4a3.34 3.34 0 01-1.532-1.53c-.85-1.53-.68-3.399.34-4.589 1.021-1.19 2.892-1.7 4.253-1.19 1.531.85 2.552 2.21 2.722 4.08-.17-.17-.17-.17 0 0-.17-.17-.17-.17 0 0 0-.17 0 0 0 0zm4.083-21.586v5.27h-16.33v-9.179l.51-2.04c.341-.68.681-1.19 1.022-1.87l-.17.17c.17-.17.34-.34.34-.51 0 .17-.17.17-.17.34l1.53-1.529c-.17 0-.17.17-.34.17.17-.17.34-.34.51-.34l-.17.17c.51-.34 1.191-.85 1.871-1.02.68-.34 1.361-.51 2.042-.51h2.21l2.042.51c.68.34 1.19.68 1.871 1.02l-.17-.17c.17.17.34.34.51.34-.17 0-.17-.17-.34-.17l1.531 1.53c0-.17-.17-.17-.17-.34.17.17.34.34.34.51l-.17-.17c.34.51.85 1.19 1.02 1.87.17.68.511 1.36.511 2.039.34 1.36.17 2.55.17 3.91zm-93.214 150.59c0-7.479-6.123-13.597-13.608-13.597h-3.912c-7.484 0-13.608 6.118-13.608 13.597v3.91h31.128v-3.91zM85.73 265.827c4.252 0 7.824 3.399 7.824 7.818 0 4.25-3.402 7.818-7.825 7.818-4.252 0-7.824-3.399-7.824-7.818 0-4.25 3.572-7.818 7.824-7.818zm401.26-153.755c5.274 0 9.866 2.89 12.248 7.308h28.236l6.634 5.95-8.675 7.308-3.912-3.91-3.913 3.91-3.912-3.91-3.912 3.91h-10.376c-2.382 4.419-6.974 7.308-12.247 7.308-7.655 0-13.948-6.289-13.948-13.937s6.123-13.937 13.778-13.937zm-4.592 10.028c-2.211 0-3.912 1.7-3.912 3.909 0 2.21 1.7 3.91 3.912 3.91 2.211 0 3.912-1.7 3.912-3.91s-1.7-3.91-3.912-3.91zm101.038 291.087a26.27 26.27 0 00-26.365-26.345h-2.041c-14.629 0-26.365 11.898-26.365 26.345 0 12.917 9.185 23.625 21.432 25.835l5.443 8.668 6.294-8.498c12.247-2.38 21.602-13.088 21.602-26.005z" fill="#623BBB"/><path d="M554.69 417.436h2.551c.51 0 .85-.34.85-.85l1.532-17.506c0-.51-.34-.85-.85-.85h-5.614c-.51 0-.85.34-.85.85l1.53 17.506c0 .51.34.85.85.85zm1.19 2.72c-2.04 0-3.742 1.7-3.742 3.739 0 2.04 1.701 3.74 3.742 3.74 2.042 0 3.743-1.7 3.743-3.74.17-2.04-1.531-3.74-3.743-3.74z" fill="#ECECEC"/><g fill="#ECECEC"><path d="M600.106 446.84c-.68 0-1.19-.17-1.701-.68l-13.268-13.257c-1.02-1.02-1.02-2.38 0-3.4 1.02-1.019 2.382-1.019 3.402 0l13.268 13.258c1.02 1.02 1.02 2.38 0 3.4-.51.51-1.02.68-1.701.68z"/><path d="M586.838 446.84c-.68 0-1.19-.17-1.7-.68-1.021-1.02-1.021-2.38 0-3.399l13.267-13.257c1.02-1.02 2.381-1.02 3.402 0 1.02 1.02 1.02 2.38 0 3.4l-13.268 13.256c-.51.51-1.02.68-1.7.68z"/></g></g></svg>